<svg width="251" height="91" viewBox="0 0 251 91" fill="none" xmlns="http://www.w3.org/2000/svg">
<path d="M250.024 88.1631H228.853V0.5H250.024V88.1631ZM222.385 58.8606V62.0604H176.11C177.095 70.8008 181.527 75.1117 189.403 75.1117C194.819 75.1117 198.511 72.8933 200.481 68.3379L220.793 69.6935C218.575 76.3413 214.758 81.5152 209.344 85.0854C203.928 88.7779 197.404 90.5 189.528 90.5C178.821 90.5 170.449 87.426 164.296 81.0189C158.142 74.7414 155.065 66.4936 155.065 56.3977C155.065 46.4228 158.142 38.296 164.296 32.0172C170.205 25.8619 178.328 22.6621 188.421 22.6621C199.003 22.6621 207.253 26.1064 213.406 32.8839C219.315 39.6539 222.392 48.2721 222.392 58.8606M176.236 49.3795H200.732C199.747 41.6205 195.686 37.6837 188.669 37.6837C181.531 37.6837 177.469 41.6205 176.236 49.3795ZM127.211 58.4902V24.6323H148.382V88.1631H128.44L127.825 79.6671C123.393 86.5594 117.118 89.8889 108.746 89.8889C101.608 89.8889 96.1945 87.9149 92.255 83.8521C88.3155 79.7893 86.3457 74.1266 86.3457 66.7417V24.6286H107.517V61.8123C107.517 65.0122 108.257 67.5972 109.731 69.3194C111.212 71.0452 113.3 71.9082 116.133 71.9082C119.332 71.9082 122.042 70.6749 124.13 68.212C126.104 65.7492 127.211 62.5493 127.211 58.4865M0.0244141 0.5H36.9537C50.4902 0.5 60.9536 4.31466 68.0921 11.8255C75.2307 19.4597 78.7999 30.2951 78.7999 44.3315C78.7999 58.2421 75.3565 69.0787 68.5846 76.7117C61.6929 84.3459 51.7231 88.1631 38.6754 88.1631H0.0244141V0.5ZM23.0432 68.8305H34.7358C48.7685 68.8305 55.7848 60.7049 55.7848 44.3315C55.7848 35.9615 53.9373 29.6803 50.368 25.6175C46.7988 21.5547 41.1376 19.4622 33.5066 19.4622H23.0395L23.0432 68.8305Z" fill="white"/>
</svg>
