<svg width="250" height="138" viewBox="0 0 250 138" fill="none" xmlns="http://www.w3.org/2000/svg">
<path d="M102.779 27.4714C102.686 25.7505 107.309 24.0602 114.254 22.9706C114.453 20.7306 114.114 18.2459 113.542 15.8734C112.515 11.6069 110.717 7.71716 109.9 6.28141C109.643 5.83338 109.772 5.30387 110.204 4.98823C111.978 3.68484 116.799 0.53843 122.718 0.0903965C128.485 -0.347455 133.177 0.915185 135.045 1.52614C135.559 1.69925 135.886 2.14728 135.827 2.62587L134.228 19.5391L133.715 3.14517C133.715 2.91098 133.516 2.71751 133.259 2.67677C132.267 2.53422 131.24 2.22874 130.282 2.09636C130.061 2.06582 129.862 2.21856 129.897 2.42221C130.119 4.10233 129.314 11.9327 124.667 21.932C125.088 21.9116 125.52 21.8912 125.952 21.8709C138.898 21.3414 149.509 23.0012 149.649 25.5673C149.743 27.339 144.851 29.0802 137.579 30.1596C138.092 29.8643 138.361 29.5587 138.337 29.2534C138.267 27.9092 132.711 27.0437 125.94 27.3187C119.169 27.5935 113.741 28.9071 113.811 30.2513C113.823 30.5261 114.068 30.7807 114.5 31.0048C107.577 30.4854 102.873 29.1821 102.779 27.4714Z" fill="#FDFFFF"/>
<path d="M134.8 55.3513C133.539 54.9645 130.726 53.8953 128.344 52.7344C127.247 52.205 124.947 50.759 123.605 49.924C123.22 49.6796 122.869 49.8833 123.22 50.3008L125.029 52.602C125.029 52.602 120.605 54.8015 118.398 55.392C118.141 55.4633 117.908 55.27 117.92 55.0357C117.966 52.4494 118.06 49.9546 118.9 46.737C118.959 46.5231 119.402 46.4416 119.636 46.5333C120.581 46.9099 126.862 50.6266 126.862 50.6266L133.516 46.7675C134.146 46.4111 134.345 46.7573 134.38 46.9609C134.823 49.1298 135.582 52.48 135.302 54.9848C135.278 55.2292 135.068 55.4226 134.812 55.3411" fill="#E6C55B"/>
<path d="M45.9917 105.602H66.2256V125.512C64.8159 125.545 62.739 125.512 59.9954 125.479C59.6715 125.479 59.3667 125.479 59.0809 125.462C58.7951 125.462 58.4904 125.445 58.1665 125.445C52.7362 125.246 47.2301 124.897 41.6667 124.399L41.857 129.334C44.4484 129.534 47.2873 129.684 50.3737 129.816C53.4604 129.949 56.1848 129.999 58.5473 129.999C62.0723 129.999 64.7967 129.684 66.7401 129.052C68.6834 128.42 70.0934 127.357 70.9317 125.844C71.7701 124.332 72.2084 122.221 72.2084 119.496V101.049H45.9726V105.602H45.9917Z" fill="#E6C55B"/>
<path d="M94.6331 101.032L77.657 129.268V129.484H84.0398L88.0789 122.704H110.237L114.238 129.484H120.812V129.268L103.702 101.032H94.6331ZM90.8034 118.15L99.1487 104.19H99.282L107.532 118.15H90.7845H90.8034Z" fill="#E6C55B"/>
<path d="M132.873 125.546V104.971C134.95 104.922 137.979 104.922 141.98 104.971C148.439 105.055 155.374 105.37 162.786 105.936L162.634 101C159.375 100.833 156.213 100.717 153.145 100.651C150.078 100.584 146.877 100.551 143.562 100.551C138.57 100.551 134.892 100.933 132.511 101.698C130.129 102.462 128.491 103.858 127.595 105.886C126.7 107.913 126.242 111.038 126.242 115.275C126.242 119.513 126.681 122.604 127.595 124.649C128.491 126.676 130.129 128.089 132.53 128.853C134.93 129.618 138.608 130 143.562 130C146.724 130 149.944 129.967 153.221 129.9C156.499 129.834 159.718 129.717 162.881 129.551L163.034 124.615C155.527 125.18 148.458 125.496 141.847 125.579C137.846 125.629 134.854 125.629 132.873 125.579" fill="#E6C55B"/>
<path d="M207.465 101.248V101.032H198.929L177.742 115.308V101.032H171.741V129.468H177.742V121.175L184.792 116.438L200.034 129.468H208.379V129.268L189.422 113.331L207.465 101.248Z" fill="#E6C55B"/>
<path d="M64.5945 84.8296C65.6817 83.1889 66.2254 80.8947 66.2254 77.9726C66.2254 75.0502 65.6817 72.7304 64.5945 71.0898C63.5071 69.4492 61.7144 68.2701 59.2166 67.5523C56.7185 66.8474 53.236 66.4885 48.7692 66.4885C44.3024 66.4885 40.8199 66.8474 38.3218 67.5523C35.8239 68.2573 34.0313 69.4364 32.9439 71.0898C31.8567 72.7304 31.313 75.0246 31.313 77.9726C31.313 80.9203 31.8567 83.1761 32.9587 84.8296C34.0607 86.47 35.8533 87.662 38.3514 88.3798C40.8493 89.0975 44.3317 89.4564 48.7544 89.4564C53.1773 89.4564 56.7039 89.0975 59.2018 88.3798C61.6997 87.662 63.4923 86.4828 64.5797 84.8296M57.9381 83.4581C56.41 83.5222 54.8819 83.5735 53.3684 83.5991C51.8549 83.6248 50.3121 83.6504 48.7692 83.6504C47.2263 83.6504 45.6835 83.6376 44.17 83.5991C42.6565 83.5607 41.1432 83.5222 39.6442 83.4581V72.4612C41.1432 72.4228 42.6565 72.3843 44.17 72.3459C45.6835 72.3074 47.2263 72.2946 48.7692 72.2946C50.3121 72.2946 51.8549 72.3074 53.3684 72.3459C54.8819 72.3715 56.41 72.4099 57.9381 72.4612V83.4581Z" fill="#FDFFFF"/>
<path d="M104.047 88.7904L94.7601 81.2924C96.4938 81.2027 97.9779 80.9465 99.1975 80.5235C100.74 79.9851 101.872 79.1905 102.607 78.1267C103.327 77.0629 103.694 75.7428 103.694 74.179C103.694 72.6154 103.327 71.2953 102.607 70.2315C101.886 69.1676 100.74 68.373 99.1975 67.8219C97.6547 67.2836 95.6857 67.0144 93.3052 67.0144H72.8955V88.9442H80.4776V81.3309H85.0914L94.3044 88.9442H104.061V88.7775L104.047 88.7904ZM80.4628 72.1156H95.7003V76.7296H80.4628V72.1156Z" fill="#FDFFFF"/>
<path d="M106.31 72.5898H118.549V88.9442H126.131V72.5898H138.371V67.0144H106.31V72.5898Z" fill="#FDFFFF"/>
<path d="M166.068 83.4584C164.686 83.4969 163.277 83.5482 161.837 83.5866C160.398 83.6251 159.089 83.6507 157.927 83.6507C156.766 83.6507 155.43 83.6251 153.99 83.5866C152.55 83.5482 151.139 83.4969 149.759 83.4584V67.0144H142.177V78.4344C142.177 81.2539 142.676 83.4456 143.675 85.035C144.673 86.6115 146.306 87.7522 148.553 88.4442C150.802 89.1365 153.932 89.4696 157.927 89.4696C161.925 89.4696 165.01 89.1237 167.259 88.4442C169.506 87.7522 171.139 86.6243 172.137 85.035C173.135 83.4584 173.637 81.2539 173.637 78.4344V67.0144H166.053V83.4584H166.068Z" fill="#FDFFFF"/>
<path d="M205.45 84.4583H205.257L193.753 67.0144H181.219V88.9442H188.507V71.5003H188.697L200.188 88.9442H212.723V67.0144H205.45V84.4583Z" fill="#FDFFFF"/>
<path d="M228.444 83.5994V80.2414H243.755V75.7171H228.444V72.3719H249.443V67.0144H220.863V88.9442H250V83.5994H228.444Z" fill="#FDFFFF"/>
<path d="M7.58189 72.5898H28.4766V67.0144H0V88.9442H7.58189V81.6257H22.702V76.6912H7.58189V72.5898Z" fill="#FDFFFF"/>
</svg>
