<svg width="250" height="134" viewBox="0 0 250 134" fill="none" xmlns="http://www.w3.org/2000/svg">
<path d="M170.25 85.275V129.402C170.25 129.948 168.901 131.931 168.353 132.388C166.373 134.044 163.362 134.166 161.284 132.624C160.728 132.216 159.215 130.275 159.215 129.801V85.2668H138.575C138.452 85.2668 136.775 84.2634 136.53 84.0513C133.151 81.1225 134.452 75.2161 139.082 74.3758C155.304 75.0611 172.778 73.144 188.862 74.2616C193.181 74.5635 195.995 78.2917 194.146 82.4033C193.86 83.0315 191.03 85.2587 190.481 85.2587H170.25V85.275Z" fill="#CBD3F0"/>
<path d="M123.955 74.3846C126.876 73.8544 129.101 75.021 130.213 77.7294C131.097 94.845 130.385 112.181 130.573 129.378C129.739 134.77 120.241 135.929 119.546 128.203C118.147 112.54 120.634 94.845 119.546 78.9613C119.734 76.6852 121.738 74.7844 123.939 74.3928L123.955 74.3846Z" fill="#CBD3F0"/>
<path d="M108.166 94.9755C112.305 97.3739 115.087 102.236 115.496 107.017C116.543 119.001 115.03 132.527 100.173 133.685C87.4279 134.681 73.3979 132.91 60.5133 133.669C56.8483 133.326 55.6703 130.234 55.3922 126.971C54.5659 117.328 54.6641 100.058 55.4085 90.358C56.1121 81.2455 62.1985 74.6049 71.5327 73.8625C77.8728 73.3649 89.3667 73.3159 95.6741 73.8625C106.334 74.7844 112.125 85.3082 108.158 94.9673L108.166 94.9755ZM66.8452 122.696H100.157C101.695 122.696 104.182 119.547 104.419 117.989C104.722 116.056 104.689 109.856 104.411 107.881C104.035 105.271 101.916 103.468 99.3472 103.158C93.228 102.416 84.9 104.137 79.0017 103.068C73.6434 102.097 72.9562 93.4173 78.5927 92.2752C83.0185 91.3778 89.7103 92.7157 94.4388 92.1854C99.7072 91.5899 99.8789 85.3898 94.0461 84.8514C86.9452 84.1906 78.7972 85.349 71.5818 84.8921C70.0193 85.0064 66.8534 87.7311 66.8534 89.1343V122.688L66.8452 122.696Z" fill="#CBD3F0"/>
<path d="M112.918 18.7796C113.049 15.8835 113.319 14.2926 110.488 12.8568C105.653 10.4013 88.2858 12.506 81.6348 11.8779C74.9839 11.2497 73.8304 1.54981 81.6348 0.864538C88.523 0.260845 101.735 0.285319 108.639 0.864538C116.411 1.52534 123.267 6.877 123.962 14.8963C125.058 27.5086 123.16 41.6139 123.962 54.3812C123.913 57.7341 121.189 59.8633 118.023 60.2631C105.613 59.6023 92.3025 61.1442 79.9987 60.2794C65.527 59.2678 62.8519 46.6392 63.8826 34.4429C64.5126 27.0273 71.3189 18.7796 79.2052 18.7796H112.926H112.918ZM112.918 30.1681H78.7961C78.1253 30.1681 75.8265 32.6237 75.5156 33.415C74.5421 35.8951 74.5667 43.8328 75.7038 46.2639C76.121 47.145 78.3625 49.2905 79.2052 49.2905H112.313C112.353 49.2905 112.926 48.7276 112.926 48.6787V30.1763L112.918 30.1681Z" fill="#54B95E"/>
<path d="M202.833 16.7477C216.225 12.1058 229.355 6.42781 242.551 1.16589C248.686 -1.12651 252.752 7.3252 247.762 10.825L224.095 20.6146L248.784 51.354C252.605 57.1217 246.289 62.9547 240.751 59.0634L213.648 25.2973L212.928 24.9547C211.529 25.7297 203.169 28.381 202.882 29.2213C202.261 37.2488 203.521 46.0676 202.842 53.9891C202.113 62.4653 192.067 62.3103 191.364 54.397C189.981 38.8804 192.411 21.3325 191.405 5.5957C192.329 1.36984 197.835 -0.865455 201.001 2.50381C201.582 3.12382 202.817 5.70175 202.817 6.38702V16.7559L202.833 16.7477Z" fill="#54B95E"/>
<path d="M141.363 48.2375C142.385 49.0533 141.944 49.1593 143.76 49.3062C156.62 50.3178 170.74 48.4333 183.731 49.3796C189.703 51.5007 188.778 59.1937 182.61 60.2787C170.053 59.6016 156.62 61.1435 144.169 60.2787C135.792 59.6995 128.904 54.2581 127.742 45.7167C126.883 39.4023 126.965 21.8055 127.676 15.3607C128.568 7.3658 135.415 1.2065 143.375 0.480433C150.525 -0.172209 164.4 -0.147735 171.582 0.455959C178.765 1.05965 180.074 8.39371 173.824 11.2572C164.392 12.3911 153.438 10.4006 144.185 11.4448C141.575 11.7385 139.506 13.4598 139.064 16.1112C139.882 25.085 138.009 35.8536 139.064 44.599C139.285 46.459 140.013 47.1443 141.355 48.213L141.363 48.2375Z" fill="#54B95E"/>
<path d="M53.5514 0.57798C57.2654 -0.0257135 59.6624 1.95669 60.1941 5.56253C59.2533 18.4604 61.4621 33.1366 60.1941 45.8224C59.5478 52.2672 54.1813 58.1002 47.9394 59.6584C42.2865 61.0615 22.2846 60.8086 15.8628 60.2621C6.31585 59.4463 -1.18588 51.068 0.155762 41.3926C0.982015 35.4372 9.1791 34.2461 11.0361 40.2504C12.1242 43.7584 10.5289 47.454 15.1183 49.1998L44.0617 49.2977C47.2604 48.7348 48.8965 46.5321 49.1747 43.4076C50.2709 31.1134 48.2993 17.2448 49.1828 4.77936C49.6982 2.55222 51.2608 0.953249 53.5432 0.57798H53.5514Z" fill="#54B95E"/>
</svg>
