<?xml version="1.0" encoding="utf-8"?>
<!-- Generator: Adobe Illustrator 26.1.0, SVG Export Plug-In . SVG Version: 6.00 Build 0)  -->
<svg version="1.1" id="Layer_1" xmlns="http://www.w3.org/2000/svg" xmlns:xlink="http://www.w3.org/1999/xlink" x="0px" y="0px"
	 viewBox="0 0 99.7 30.4" style="enable-background:new 0 0 99.7 30.4;" xml:space="preserve">
<style type="text/css">
	.st0{fill:#FFFFFF;}
	.st1{fill-rule:evenodd;clip-rule:evenodd;fill:#FFFFFF;}
</style>
<g id="a">
</g>
<g id="b">
</g>
<g id="c">
</g>
<g id="d">
</g>
<g id="e">
</g>
<g id="f">
</g>
<g id="g">
</g>
<g id="h">
</g>
<g id="i">
	<path class="st0" d="M52.5,25.2c-12.6,1.3-25.1,2.5-37.7,3.8c-4,0.4-8,0.9-12,1.4h96.9v-9.9c-4.6,0.5-9.1,1-13.7,1.4
		C74.9,23,63.7,24.1,52.5,25.2L52.5,25.2z"/>
	<path class="st1" d="M94.8,18.4l-4.3,0.4V5.1l-4.6,0.3v-4l13.6-1.3v4l-4.7,0.5c0,0,0,0.5,0.1,2.3c0.1,2.7,0.1,5.3,0.1,8.1l0,0
		C94.8,16.1,94.8,17.2,94.8,18.4L94.8,18.4z M75.9,16.2l8.8-0.8v4.2l-13.2,1.3V3.1l13.1-1.3V6l-8.8,0.9v2.5l8.1-0.8v3.9l-8,0.9V16.2
		L75.9,16.2z M69.5,17.2c0.5-2.4-0.2-4.3-2.6-5.4c2.1-2,2.7-4.1,1.7-6.1c-1.1-2.3-3.2-2.2-5.2-2c-1.9,0.2-3.8,0.4-5.8,0.6l0,0
		c-0.8,0.1-1.7,0.2-2.6,0.2v17.9c1-0.1,2-0.2,3-0.3l0,0c2.3-0.2,4.5-0.4,6.7-0.7C67.3,21.1,69,19.7,69.5,17.2L69.5,17.2z M60.4,7.9
		L60.4,7.9c0.8-0.1,1.5-0.2,2.2-0.2c0.1,0,0.2,0,0.3,0.1c1,0.4,1.3,1.7,0.6,2.6c-0.2,0.2-0.3,0.3-0.5,0.4c-0.7,0.3-1.6,0.3-2.4,0.4
		c-0.4,0-0.8,0.1-1.1,0.1V8.1C59.7,8,60.1,8,60.4,7.9L60.4,7.9z M64.2,16.9c-0.2,0.3-0.4,0.5-0.7,0.6c-0.9,0.3-1.8,0.4-2.8,0.4
		c-0.4,0-0.8,0.1-1.3,0.1v-3.4c0.4,0,0.8-0.1,1.1-0.1c0.9-0.1,1.7-0.3,2.6-0.2c0.2,0,0.4,0.1,0.6,0.2C64.6,15,64.8,16.1,64.2,16.9
		L64.2,16.9L64.2,16.9z M25.7,15.2c0.6,0.9,1.1,1.6,1.7,2.4l0,0c1.2,1.7,2.3,3.3,3.3,4.9c1,1.6,2.1,2.2,3.9,1.8
		c0.4-0.1,0.9-0.1,1.3-0.2l0,0c0.2,0,0.4,0,0.7-0.1V6.2l-4.2,0.5v9.4c-1.7-2-3.2-4.1-4.6-6.1c-0.4-0.6-0.8-1.1-1.2-1.7
		c-0.3-0.4-1-0.9-1.5-0.9c-0.9,0-1.7,0.1-2.6,0.2c-0.4,0.1-0.7,0.1-1.1,0.2v17.8l4.3-0.4C25.7,25.1,25.7,15.2,25.7,15.2z M52.8,18.3
		l-8.7,0.8v-2.7l8-0.9v-3.9L44,12.3V9.8l8.8-0.9V4.6L39.7,5.9v17.9l13.1-1.3L52.8,18.3L52.8,18.3z M12.4,22.2l-7.9,0.7V9.4L0.3,9.9
		v17.8l12.1-1.2V22.2L12.4,22.2z M14.2,8.4L18.4,8v17.8l-4.2,0.4C14.2,26.2,14.2,8.4,14.2,8.4z"/>
</g>
<g id="j">
</g>
<g id="k">
</g>
<g id="l">
</g>
<g id="m">
</g>
<g id="n">
</g>
<g id="o">
</g>
<g id="p">
</g>
<g id="q">
</g>
<g id="r">
</g>
<g id="s">
</g>
<g id="t">
</g>
<g id="u">
</g>
<g id="v">
</g>
<g id="w">
</g>
<g id="x">
</g>
<g id="y">
</g>
<g id="a_x60_">
</g>
<g id="aa">
</g>
<g id="ab">
</g>
<g id="ac">
</g>
<g id="ad">
</g>
<g id="ae">
</g>
<g id="af">
</g>
<g id="ag">
</g>
<g id="ah">
</g>
<g id="ai">
</g>
</svg>
