<?xml version="1.0" encoding="utf-8"?>
<!-- Generator: Adobe Illustrator 16.0.0, SVG Export Plug-In . SVG Version: 6.00 Build 0)  -->
<!DOCTYPE svg PUBLIC "-//W3C//DTD SVG 1.1//EN" "http://www.w3.org/Graphics/SVG/1.1/DTD/svg11.dtd">
<svg version="1.1" id="Layer_1" xmlns="http://www.w3.org/2000/svg" xmlns:xlink="http://www.w3.org/1999/xlink" x="0px" y="0px"
	 width="200px" height="114.5px" viewBox="0 0 200 114.5" enable-background="new 0 0 200 114.5" xml:space="preserve">
<g>
	<path fill-rule="evenodd" clip-rule="evenodd" fill="#FFFFFF" d="M34.221,26.085c-3.114,3.9-4.099,8.451-5.836,12.69
		c-0.753,1.842-0.694,4.297-4.016,4.332c-3.524,0.035-3.509-2.49-4.29-4.547c-1.603-4.208-3.116-8.455-5.723-12.594
		c0,4.879-0.187,9.77,0.067,14.633c0.16,3.056-0.697,4.012-3.848,3.923c-6.617-0.189-6.623,0.003-6.623-6.74
		c0-8.363,0.091-16.726-0.054-25.088c-0.044-2.54,0.491-3.465,3.295-3.496C17.967,9.075,17.929,8.97,21.706,19.306
		c0.661,1.808,0.447,4.999,2.615,4.956c2.05-0.042,1.75-3.276,2.599-5.048c0.068-0.143,0.135-0.285,0.187-0.436
		c3.673-10.282,3.669-10.224,14.858-9.558c1.979,0.12,2.734,0.543,2.713,2.663c-0.1,9.939-0.087,19.881-0.008,29.82
		c0.014,1.946-0.374,2.983-2.578,2.763c-1.561-0.158-3.167-0.173-4.727,0c-2.426,0.273-3.311-0.497-3.207-3.075
		C34.367,36.297,34.221,31.188,34.221,26.085z"/>
	<path fill-rule="evenodd" clip-rule="evenodd" fill="#FEFEFE" d="M52.302,26.655c0-4.725,0.114-9.453-0.048-14.17
		c-0.081-2.351,0.42-3.33,3.056-3.271c7.872,0.173,15.752,0.227,23.618-0.012c3.521-0.104,2.848,2.065,2.725,3.958
		c-0.121,1.88,1.241,4.69-2.728,4.52c-4.559-0.196-9.134,0.035-13.696-0.084c-2-0.05-2.727,0.501-2.752,2.628
		c-0.027,2.27,0.991,2.544,2.846,2.498c3.933-0.093,7.883,0.162,11.804-0.085c3.53-0.22,2.69,2.124,2.774,4.023
		c0.093,2.073,0.424,4.101-2.913,3.846c-3.6-0.27-7.239-0.031-10.86-0.069c-1.956-0.023-3.598-0.247-3.685,2.74
		c-0.084,2.979,1.461,2.859,3.469,2.836c4.407-0.054,8.825,0.143,13.224-0.062c4.252-0.197,2.678,2.852,2.958,4.859
		c0.324,2.316-0.044,3.781-3.102,3.696c-7.868-0.208-15.747-0.169-23.616-0.012c-2.532,0.054-3.222-0.736-3.129-3.195
		C52.434,36.424,52.302,31.538,52.302,26.655z"/>
	<path fill-rule="evenodd" clip-rule="evenodd" fill="#FEFEFE" d="M122.223,13.545c-0.852,1.029-1.529,1.707-2.035,2.493
		c-2.045,3.191-3.926,4.498-8.08,2.193c-5.041-2.802-10.578-0.455-12.855,4.146c-2.26,4.563-0.725,10.324,3.427,12.853
		c5.053,3.079,10.779,1.642,14.9-4.139c-1.346,0-2.379-0.119-3.373,0.023c-3.041,0.432-4.369-0.297-4.369-3.877
		c-0.004-3.573,1.621-3.604,4.258-3.596c9.375,0.031,9.375-0.035,9.375,9.245c0,7.73-1.213,9.33-8.598,11.373
		c-4.82,1.337-9.641,1.383-14.415-0.143c-8.428-2.694-13.415-10.467-12.461-19.3c0.938-8.69,7.754-15.361,16.844-16.313
		C111.182,7.837,117.012,9.171,122.223,13.545z"/>
	<path fill-rule="evenodd" clip-rule="evenodd" fill="#FBFBFB" d="M189.744,83.606c0,6.917-0.188,13.843,0.074,20.749
		c0.141,3.727-0.703,5.206-4.855,5.214c-10.199,0-10.199,0.235-10.199-9.68c0-11.989,0.449-24.001-0.174-35.959
		c-0.367-6.906,3.193-6.543,7.918-6.517c4.438,0.031,8.064-0.451,7.383,6.15C189.215,70.18,189.744,76.92,189.744,83.606z"/>
	<path fill-rule="evenodd" clip-rule="evenodd" fill="#E5372C" d="M187.641,30.139c4.508-0.1,8.227,3.295,8.432,7.7
		c0.209,4.397-3.785,8.451-8.305,8.432c-4.459-0.016-8.102-3.619-8.131-8.047C179.602,33.746,183.078,30.239,187.641,30.139z"/>
	<path fill-rule="evenodd" clip-rule="evenodd" fill="#219CD6" d="M196.1,16.211c0.139,3.9-3.623,7.739-7.84,8.004
		c-4.346,0.27-8.508-3.407-8.623-7.619c-0.113-4.027,3.494-7.762,7.75-8.031C191.609,8.296,195.953,12.107,196.1,16.211z"/>
	<path fill-rule="evenodd" clip-rule="evenodd" fill="#FEFEFE" d="M153.594,94.716c-1.701-2.274-1.801-3.642,0.906-5.28
		c6.76-4.1,8.664-10.675,7.242-17.904c-1.469-7.496-6.701-11.581-14.219-13.072c-9.834-1.954-19.734-0.49-29.584-1.037
		c-3.154-0.174-3.137,1.769-3.131,3.969c0.023,14.733,0.012,29.462,0.018,44.187c0,1.85-0.086,3.388,2.584,3.931
		c9.27,1.877,11.9-0.016,11.955-9.21c0.006-0.693-0.049-1.387,0.012-2.073c0.152-1.723-0.635-4.027,1.922-4.524
		c2.281-0.443,4.504-0.316,6.037,2.112c2.201,3.492,4.686,6.81,6.988,10.239c1.324,1.966,2.646,3.573,5.436,3.441
		c4.291-0.204,8.594-0.058,14.248-0.058C159.959,103.688,156.883,99.121,153.594,94.716z M135.438,82.334
		c-4.256,0.929-6.387-0.474-6.348-6.397c0.035-5.796,2.484-6.482,7.057-6.027c4.715,0.466,10.746-0.551,10.594,6.605
		C146.594,83.352,140.814,82.153,135.438,82.334z"/>
	<path fill-rule="evenodd" clip-rule="evenodd" fill="#FEFEFE" d="M85.805,60.499c-1.655-3.885-4.708-3.214-7.467-2.891
		c-3.274,0.386-7.384-2.162-9.552,2.864c-6.54,15.129-13.32,30.163-19.943,45.262c-0.484,1.102-1.374,2.466,0.395,3.526
		c3.852,2.289,14.299-0.617,15.694-4.845c1.171-3.549,3.127-4.524,6.572-4.258c3.436,0.258,6.927,0.32,10.352-0.011
		c4.033-0.401,6.657,0.778,7.513,4.94c0.744,3.607,3.041,4.679,6.549,4.412c3.385-0.258,6.804-0.054,11.253-0.054
		C99.688,92.358,92.624,76.48,85.805,60.499z M71.201,89.036c1.989-4.744,3.561-8.498,5.392-12.856
		c3.451,3.63,4.019,7.962,6.11,12.293C79.086,89.768,75.618,89.028,71.201,89.036z"/>
	<path fill-rule="evenodd" clip-rule="evenodd" fill="#FEFEFE" d="M155.424,13.356c-1.357-3.299-3.152-4.143-6.621-4.301
		c-4.197-0.189-6.229,1.233-7.488,5.052c-1.121,3.411-2.828,6.628-4.273,9.935c-2.914,6.667-5.828,13.334-8.898,20.367
		c3.195,0,5.715-0.108,8.227,0.039c1.869,0.104,3.006-0.498,3.4-2.362c0.686-3.268,2.805-4.12,5.9-3.746
		c1.865,0.228,3.795,0.204,5.668,0.008c2.871-0.305,4.949,0.389,5.572,3.511c0.471,2.374,2.082,2.767,4.197,2.647
		c2.354-0.139,4.721-0.035,7.83-0.035C164.24,33.735,159.65,23.623,155.424,13.356z M151.287,30.313
		c-0.488,1.171-4.998,1.16-5.58,0.085c-1.676-3.11,1.762-5.415,2.625-8.267C149.955,24.933,152.479,27.468,151.287,30.313z"/>
	<path fill-rule="evenodd" clip-rule="evenodd" fill="#FEFEFE" d="M33.993,58.487c-8.875-1.996-17.875-0.489-26.801-0.99
		c-3.21-0.181-3.037,1.931-3.037,4.062c0.011,7.361,0.005,14.721,0.005,22.074c0,6.212,0.542,12.482-0.146,18.613
		c-0.738,6.563,2.017,8.24,7.676,7.149c2.507-0.485,7.619,1.892,6.866-2.833c-1.746-10.96,3.316-13.376,12.642-12.231
		c1.054,0.127,2.208-0.547,3.318-0.836c9.924-2.617,14.654-8.559,14.446-18.116C48.759,66.237,43.861,60.719,33.993,58.487z
		 M23.8,83.544c-6.511,0.582-4.473-3.977-4.613-5.307c-0.399-5.615-0.99-9.149,5.002-8.598c4.921,0.451,9.921,0.871,9.989,6.763
		C34.251,82.816,28.841,83.101,23.8,83.544z"/>
</g>
</svg>
