<svg width="250" height="74" viewBox="0 0 250 74" fill="none" xmlns="http://www.w3.org/2000/svg">
<path d="M177.525 69.5907L180.416 74H162.683L165.574 69.5907L164.418 60.772H153.431L152.467 69.5907L155.359 74H137.433L140.324 69.7824L150.54 0H167.695L177.525 69.5907ZM21.3955 4.21762L29.1056 49.2694L36.8157 4.21762L34.8882 0H58.0185L54.9345 4.40933V69.5907L57.8258 74H40.478L43.3693 69.5907V19.7461L33.1534 73.8083H24.6723L14.4564 19.7461V69.5907L17.3477 74H0L2.89129 69.5907V4.21762L0.192753 0H23.1303L21.3955 4.21762ZM91.1719 0V15.5285L83.6546 10.3523H76.33V31.8238H83.0763L87.3169 28.9482V45.0518L83.0763 42.1762H76.33V63.6477H83.6546L91.1719 58.4715V74H62.0663L64.9576 69.5907V4.21762L62.0663 0H91.1719ZM113.338 4.21762L122.205 41.7927V4.21762L120.47 0H136.662L133.77 4.40933V74H122.205L109.676 24.5389V69.5907L112.567 74H95.2197L98.111 69.5907V4.40933L95.2197 0H115.266L113.338 4.21762ZM250 15.5285L242.483 10.3523H235.158V31.8238H241.904L246.145 28.9482V45.0518L241.904 42.1762H235.158V63.6477H242.483L250 58.4715V74H220.894L223.786 69.5907V4.21762L220.894 0H250V15.5285ZM215.112 6.32643V20.1295L203.932 27.7979V10.3523H194.487V63.6477H203.932V50.8031L215.112 43.1347V67.6736C212.606 70.1658 211.257 71.5078 208.751 74H189.283L182.922 67.6736V6.32643L189.283 0H208.751C211.257 2.49223 212.606 3.8342 215.112 6.32643ZM154.78 50.4197H163.261L159.021 15.9119L154.78 50.4197Z" fill="white"/>
</svg>
