<?xml version="1.0" encoding="utf-8"?>
<!-- Generator: Adobe Illustrator 23.0.6, SVG Export Plug-In . SVG Version: 6.00 Build 0)  -->
<svg version="1.1" id="Layer_1" xmlns="http://www.w3.org/2000/svg" xmlns:xlink="http://www.w3.org/1999/xlink" x="0px" y="0px"
	 width="200px" height="49px" viewBox="0 0 200 49" style="enable-background:new 0 0 200 49;" xml:space="preserve">
<style type="text/css">
	.st0{fill:#F1F2F2;}
	.st1{fill:#DBDCDD;}
	.st2{fill:#D1D2D4;}
	.st3{fill:#D6D7D9;}
	.st4{fill:#E1E2E3;}
	.st5{fill:#F4F4F5;}
	.st6{fill:#ABADB0;}
	.st7{fill:#CACCCD;}
	.st8{fill:#F2F3F3;}
	.st9{fill:#9E1963;}
	.st10{fill:#EBEBEC;}
	.st11{fill:#BDBFC1;}
	.st12{fill:#EFEFF0;}
	.st13{fill:#F0F1F1;}
	.st14{fill:#D9155C;}
	.st15{fill:#91228F;}
	.st16{fill:#E4E5E6;}
	.st17{fill:#C1C2C4;}
	.st18{fill:#F3F3F4;}
	.st19{fill:#D5D6D8;}
	.st20{fill:#EBECED;}
	.st21{fill:#E8E9EA;}
	.st22{fill:#B3B5B8;}
	.st23{fill:#662991;}
	.st24{fill:#B0B2B4;}
	.st25{fill:#D8D9DA;}
	.st26{fill:#DDDEDF;}
	.st27{fill:#B8B9BC;}
	.st28{fill:#CFD0D2;}
	.st29{fill:#B3B5B7;}
	.st30{fill:#ECECED;}
	.st31{fill:#E2E3E4;}
	.st32{fill:#C9CBCD;}
	.st33{fill:#F6F6F6;}
	.st34{fill:#AEB0B2;}
	.st35{fill:#D6D8D9;}
	.st36{fill:#D3D4D6;}
	.st37{fill:#D4D6D7;}
	.st38{fill:#B1B3B6;}
	.st39{fill:#C8CACB;}
	.st40{fill:#EEEFEF;}
	.st41{fill:#F7F7F7;}
	.st42{fill:#C9CBCC;}
	.st43{fill:#D3D5D6;}
	.st44{fill:#C9CACC;}
	.st45{fill:#FBFBFB;}
	.st46{fill:#E8E8E9;}
	.st47{fill:#ACAEB1;}
	.st48{fill:#E3E4E5;}
	.st49{fill:#BEC0C2;}
	.st50{fill:#B1B3B5;}
	.st51{fill:#CFD1D2;}
	.st52{fill:#DBDCDE;}
	.st53{fill:#CCCECF;}
	.st54{fill:#DFE0E1;}
	.st55{fill:#9EA0A2;}
	.st56{fill:#AEB0B3;}
	.st57{fill:#810B4E;}
	.st58{fill:#7B7C7F;}
	.st59{fill:#7A1178;}
	.st60{fill:#B0B2B5;}
	.st61{fill:#AFB1B3;}
	.st62{fill:#B3094A;}
	.st63{fill:#531979;}
	.st64{fill:#ADAFB2;}
	.st65{fill:#DBDDDE;}
	.st66{fill:#8B8D90;}
	.st67{fill:#ECEDED;}
	.st68{fill:#EDEDEE;}
	.st69{fill:#F0F0F1;}
	.st70{fill:#9EA0A3;}
	.st71{fill:#B9BABD;}
	.st72{fill:#D7D8DA;}
	.st73{fill:#B6B8BA;}
	.st74{fill:#D1D3D4;}
	.st75{fill:#9D9FA1;}
	.st76{fill:#E5E6E7;}
	.st77{fill:#9C9FA1;}
	.st78{fill:#D1D2D3;}
	.st79{fill:#C0C2C4;}
	.st80{fill:#D8D9DB;}
	.st81{fill:#C5C7C8;}
	.st82{fill:#C3C5C7;}
	.st83{fill:#BFC1C3;}
	.st84{fill:#F5F6F6;}
	.st85{fill:#E0E2E3;}
	.st86{fill:#EBECEC;}
	.st87{fill:#EAEAEB;}
	.st88{fill:#F7F7F8;}
	.st89{fill:#E6E7E8;}
	.st90{fill:#DDDFE0;}
	.st91{fill:#B16E89;}
	.st92{fill:#E1C3CA;}
	.st93{fill:#F6F7F7;}
	.st94{fill:#FBFCFC;}
	.st95{fill:#E5B9BF;}
	.st96{fill:#D7667B;}
	.st97{fill:#AB78AF;}
	.st98{fill:#DFD6E4;}
	.st99{fill:#B58DBC;}
	.st100{fill:#EEEEEF;}
	.st101{fill:#CEBED8;}
	.st102{fill:#9775B0;}
	.st103{fill:#F6F6F7;}
	.st104{fill:#EAEBEB;}
	.st105{fill:#F2F2F3;}
	.st106{fill:#DADBDD;}
</style>
<g>
	<path class="st0" d="M132,33c-1.5-3.4-3-6.8-4.6-10.3c-1.5,3.3-2.9,6.5-4.3,9.6c0,0.1-0.1,0.2-0.2,0.2c-1.3,0.4-2.6,0.3-3.9,0
		c-0.6-0.1-0.4-0.7-0.2-1.1c0.7-1.7,1.5-3.4,2.3-5c0.7-1.5,1.4-3.1,2-4.7c0.2-0.5,0.3-1,0.3-1.5c0.1-0.4,0.2-0.8,0.4-1.2
		c0.5-1,0.8-2,1.3-3c0.1-0.2,0.2-0.4,0.2-0.6c0.2-0.8,0.8-1.2,1.6-1.1c0.1,0,0.2,0,0.3,0c1.6,0,1.6,0.1,2.2,1.5
		c0.4,1,0.8,1.9,1.2,2.9c0.4,0.9,0.8,1.7,1,2.7c-0.1,0.6,0,1.2,0.3,1.8c1.2,2.6,2.4,5.3,3.5,7.9c0.2,0.5,0.7,1.1,0.4,1.8
		C134.6,33.6,133.3,33.4,132,33z"/>
	<path class="st1" d="M47.2,14.8c-0.2-0.3-0.4-0.6-0.4-1c0.3-0.2,0.6-0.1,0.8-0.1c9.1,0,18.2,0,27.4,0c1,0,1,0,1,1
		c0,0.5,0,1.1,0,1.6c0,0.6,0,1.1-0.7,1.3C75,17.7,75,18.1,75,18.4c0,2.1,0,4.2,0,6.3c0,0.3,0,0.7,0.4,0.8c0.5,0.1,0.6,0.5,0.6,1
		c0,0.6,0,1.3,0,1.9c-0.4,0.5-1.1,0.8-1.3,1.5c0,0.2-0.3,0.2-0.5-0.1c-0.3-1.1-0.1-2.1-0.2-3.2c0-0.6,0-1.2,0-1.8
		c0-1.1,0-2.2,0.1-3.3c0.1-1.2-0.2-1.6-1.4-1.6c-0.7,0-1.4,0.2-2.1-0.3c0-0.5-0.1-0.7-0.7-0.7c-1.8,0-3.6,0-5.4,0
		c-0.6,0-0.7,0.2-0.7,0.7c-0.4,0.4-0.9,0.3-1.4,0.3c-0.6,0-0.9,0.3-0.9,0.9c0,0.8,0,1.6,0,2.3c0,1.8-1.2,2.5-2.9,1.7
		c-0.1-1.5,0-3.1-0.1-4.6c0-0.4,0.2-0.6,0.6-0.7c0.2,0,0.4,0,0.6-0.1c1-0.1,1.2-0.3,1.2-1.3c0-0.7,0-1.4,0-2.2
		c0-0.6-0.2-0.9-0.8-0.8c-0.1,0-0.2,0-0.3,0c-3.8,0.1-7.6-0.3-11.4-0.2C48.1,15.1,47.6,15.2,47.2,14.8z"/>
	<path class="st2" d="M149.8,14.5c0,1.1,0,2.2,0,3.3c-0.9,0.3-1,1-1,1.8c0,1.4,0,2.7,0,4.1c0,0.8,0.1,1.5,1,1.8c0,1,0,2.1,0,3.1
		c-0.8,0.3-1.1,1-1,1.9c0,0.4,0,0.7,0,1.1c-0.1,0.8,0.1,1.5,1,1.9c0,0.8,0,1.5,0,2.3c0,0-0.1,0.1-0.1,0.1c-0.4,0.2-0.9,0.3-0.8,0.8
		c0.1,0.6,0.6,0.3,1,0.5c0.1,0,0.2,0.1,0.2,0.1c0.2,0.3,0.6,0.3,0.9,0.3c1.3,0,2.6-0.1,3.9,0.1c-0.2-0.1-0.7,0.1-0.4-0.5
		c1.3-0.3,2.6,0,4,0.1c0.8,0.1,1.6-0.2,2.4,0.3c0.4,1.3,0.8,2.5,1.5,3.8c-0.3,0-0.5,0-0.6,0c-5.4,0-10.9,0-16.3,0
		c-0.7,0-0.8-0.2-0.8-0.8c0-8.7,0-17.4,0-26.1c0-0.7,0.2-0.8,0.8-0.8c1.3,0,2.6,0,3.9,0c0.2,0,0.5-0.1,0.6,0.1
		c-0.3,0.3-0.7,0.3-1.1,0.3c-0.9,0-1.9,0-2.8,0c-0.7,0-0.9,0.3-0.9,0.9c0,2.2,0,4.3,0,6.5c0,3.7,0,7.3,0,11c0,1.2,0,2.4,0,3.5
		c0,0.7,0.2,1,0.9,1c1.8,0,2-0.2,2-1.9c0-1.1,0-2.3,0-3.4c0-3.3,0-6.6,0-9.9c-0.1-2.1,0.2-4.1,0.2-6.2C148,14.3,148.7,14,149.8,14.5
		z"/>
	<path class="st3" d="M164.9,15c-0.4-3.1,0.5-5.9,2.6-8.2c2.6-3,6.1-4.6,9.9-5.3c3.7-0.6,7.3-0.4,10.9,1c0.1,0,0.2,0.1,0.4,0.2
		c-0.4,0.3-0.8,0.4-1.2,0.6c-0.5,0.3-0.5,0.5-0.1,0.8c0.5,0.4,1.1,0.6,1.6,1c0.1,0.1,0.3,0.2,0.3,0.4c0,0.2-0.1,0.4-0.3,0.6
		c-0.9-0.2-1.7-0.8-2.6-1.1c-0.8-0.3-1.6-0.7-2.3-1.1c-0.9-0.5-2.1-0.5-3.1-0.5c-2.5,0.1-5,0.4-7,1.8c-2.6,1.8-5.1,4-5.5,7.5
		c-0.1,1.2,0,2.3,0.3,3.4c0.4,1.5,1.2,2.7,2.2,3.8c0.3,0.3,0.7,0.6,0.8,1c-0.3,0.5-0.6,0.2-0.8,0c-0.8-0.5-1.3-1.3-1.8-2
		c-0.8-1.4-1.5-2.9-1.7-4.5c0-0.4-0.1-0.9-0.7-1c-0.4-0.1-1.6,0.7-1.8,1C165,14.6,165.1,14.9,164.9,15z"/>
	<path class="st4" d="M6.4,26.3c0.1,1,0.1,2.1,0,3.1c-1.2,0.8-1.2,2.3,0,3.1c0.1,0.6,0.1,1.3,0,1.9c-0.4,0.3-0.8,0.3-1.1,0
		C4.6,33.9,3.8,34,3,34c-0.6,0-1.3,0.2-1.9-0.3c-0.1-0.9-0.1-1.8,0-2.8c0.3-0.3,0.6-0.3,1-0.3c0.5,0,1,0,1.5,0c0.7,0,1-0.3,1-1
		c0-1.9,0-3.8,0-5.7c0-0.6-0.3-0.9-0.9-0.9c-0.5,0-1,0-1.6,0c-0.3,0-0.7,0-1-0.3c-0.1-1.7-0.1-3.5,0-5.2c0.3-0.3,0.6-0.3,1-0.3
		c1.8,0,3.6,0.1,5.3-0.1c0.2,0,0.5,0,0.7,0.2c1.4,1.7,2.8,3.4,4.1,5.2c-0.3,0.3-0.6,0.2-1,0.2c-0.8-0.1-1.5-0.1-2.3,0
		c-0.7,0-0.8,0.2-0.4,0.8c0.3,0.5,0.7,0.9,1,1.4c0.2,0.4,0.6,0.8,0.2,1.3c-0.6,0-0.7-0.5-1.1-0.8c-1.1-1.3-2.1-2.7-3.1-4
		c0,1.1,0.1,2.2,0,3.3C5.5,25.5,5.7,26,6.4,26.3z"/>
	<path class="st5" d="M163.5,37.7c-0.9-2.8-0.5-5.4,1-7.9c1.1-2,2.8-3.5,4.6-4.8c0.5-0.4,1-0.8,1.5-1.1c-0.2-0.3,0-0.6,0.2-0.7
		c0.9-0.6,1.8-1.1,2.9-0.6c0.8,0.3,1.7,0.6,2.5,0.8c0.2,0.1,0.5,0,0.7,0c1,0,1.9,0.3,2.9,0.3c0.6,0,1.1-0.1,1.7,0.2
		c0.3,0.5-0.1,0.7-0.5,0.9c-0.4,0.2-0.8,0.1-1.3,0.1c-1.5,0.1-3.1,0.3-4.6,0.4c-1.9,0.2-3.3,1.4-4.7,2.6c-2.3,2-3.6,4.5-3.6,7.6
		c0,0.7-0.3,1.3-1,1.6c-0.5,0.2-1,0.5-1.5,0.7C164.1,37.8,163.8,38,163.5,37.7z"/>
	<path class="st6" d="M198.7,37.4c-0.8,3.2-2.7,5.6-5.4,7.3c-4.4,2.8-9.2,3.7-14.3,3.4c-1.2-0.1-2.4-0.2-3.5-0.6
		c0.9-0.9,2.1-1.2,3.2-1.8c2.9,0.1,5.8-0.1,8.6-1.2c2.3-0.9,4.2-2.3,5.7-4.3c0.1-0.2,0.2-0.3,0.4-0.4c1.3-0.7,2.6-1.4,3.9-2
		C197.7,37.5,198.1,37.2,198.7,37.4z"/>
	<path class="st7" d="M47.2,14.8c2,0,4-0.1,6,0c2.5,0.1,4.9,0.2,7.4,0.1c0.6,0,0.7,0.2,0.7,0.8c0,0.9,0,1.8,0,2.8
		c0,1-0.3,1.3-1.2,1.3c-1.4,0.1-1.4,0.1-1.4,1.4c0,1.2,0,2.4,0,3.6c0.3,0.3,0.3,0.6,0.3,1c0,1.3,0,2.6,0,3.9c0,0.5,0.1,1.1-0.1,1.6
		c-0.1,0.1-0.1,0.1-0.3,0.1c0-3.9,0-7.7,0-11.6c0-0.7-0.2-0.9-0.8-0.9c-2.7,0-5.4,0-8.1,0c-0.6,0-0.9-0.1-1.1-0.7
		C48.2,17.2,47.7,16,47.2,14.8z"/>
	<path class="st8" d="M9.7,26.3c0.1-0.6-0.2-1.1-0.6-1.6c-0.2-0.3-0.4-0.5-0.6-0.8c-0.2-0.3-0.7-0.6-0.4-1.1
		c0.2-0.4,0.7-0.3,1.1-0.3c1,0,2,0,3.1,0.1c1.8,2.2,3.5,4.4,5.2,6.7c0.3,0.5,0.7,0.9,1,1.3c0,0.5-0.5,0.4-0.8,0.4
		c-0.8,0.1-1.6,0-2.3,0c-0.5,0-0.8,0.2-0.4,0.7c0.2,0.3,0.4,0.7,0.1,1c-0.3,0.3-0.6,0.1-1,0c-0.3-0.1-0.6-0.1-0.9-0.3
		c-1-1.2-1.9-2.3-2.8-3.6c0.4-0.6,0.2-1.1-0.3-1.6C9.8,27,9.4,26.8,9.7,26.3z"/>
	<path class="st9" d="M148.2,10.2c-1.2,0-2.4,0-3.6,0.2c0.4-0.9,1.1-1.4,1.4-2.2c-0.6,0.1-1.2,0.3-1.9,0c-1-0.4-1.7-1.2-1.7-2.3
		c0-1,0.5-1.9,1.5-2.3c0.5-0.2,0.7-0.4,0.7-1c0.1-1,0.6-1.8,1.7-2.1c2.1-0.2,3.4,1,2.9,2.9c-0.2,0.2-0.3,0.1-0.3-0.1
		c0-0.2,0-0.5,0-0.6c-0.2,0.7,0.3,1,0.9,1.2c1,0.4,1.4,1.1,1.3,2.3c-0.6,1.5-1,1.6-3.7,1.2c0,0.3,0.2,0.4,0.4,0.6
		c0.4,0.5,0.5,1.1,0.8,1.7C148.7,10.1,148.6,10.3,148.2,10.2z"/>
	<path class="st10" d="M42.1,24.5c-0.3-0.6-0.5-1.1-0.9-1.8c-0.4,0.9-0.8,1.7-1.2,2.5c-0.9-0.1-1.7-0.1-2.6-0.1
		c-0.7,0-1.2,0.3-1.6,0.9c-0.3,0.5-0.4,1.2-1,1.5c-0.2-0.1-0.3-0.3-0.4-0.5c0-0.9,0.5-1.6,0.8-2.4c0.8-1.8,1.6-3.6,2.3-5.4
		c0.5-1,0.9-2,1.3-3c0.1-0.2,0.2-0.4,0.3-0.6c0.6-1.4,0.6-1.4,2-1.3c-0.4-0.1-1,0.2-1-0.4c0-0.5,0.6-0.2,1-0.2
		c1.2-0.3,1.8,0.2,2.2,1.3c0.2,0.8,0.6,1.6,0.9,2.3c0.1,0.3,0.2,0.5,0,0.8c-0.6,0.2-0.8-0.3-1.1-0.6c-0.3-0.5-0.5-1-0.7-1.5
		c-0.2-0.5-0.6-0.6-1.1-0.6c-0.5,0-0.9,0.1-1.1,0.6c-0.4,1-0.9,1.9-1.3,2.9c-0.3,0.7-0.1,1,0.7,1c1.2,0,2.3,0,3.5,0
		c0.8,0,1.4,0.3,1.9,1c0.6,1,1.1,2.1,1.5,3.2c0.1,0.2,0.1,0.4-0.1,0.5C44.9,24.6,43.5,24.8,42.1,24.5z"/>
	<path class="st11" d="M79.2,35.3c1.8,0.8,3.6,0.8,5.4-0.1c1.1,0.4,1.8-0.1,2.4-0.9c0.2-0.3,0.4-0.6,0.6-0.9c0.5-1,0.8-2,1.1-3
		c0.1-0.2,0.1-0.5,0.3-0.7c0.3,0,0.3,0.3,0.4,0.5c0,1.1-0.2,2.2-0.7,3.2c-0.3,0.7-0.6,1.4-1.1,2c-0.4,0.5-0.3,0.7,0.3,0.7
		c0.8,0,1.5,0,2.3,0c0.3,0,0.7-0.1,1,0.2c-0.6,1-1.3,1.8-2.2,2.4c-0.5,0.1-1,0.1-1.5,0.1c-3.7,0-7.5,0-11.2,0c-0.6,0-1.1,0-1.6-0.3
		c-1-0.7-1.8-1.7-2.3-2.8c0.2-0.2,0.5-0.2,0.8-0.2c0.3,0,0.6,0,0.9,0c1.8-0.1,3.5-0.1,4.8,1.3c0.2,0,0.2,0,0.1-0.1
		c-0.5-0.2-1.2-0.3-1.1-0.9C77.9,35.1,78.7,35.6,79.2,35.3z"/>
	<path class="st12" d="M102.8,33.9c-0.5-0.4-1.1-0.9-1.7-1.4c0,0.4-0.1,0.8-0.1,1.2c-1.2,0.5-2.4,0.3-3.6,0.1
		c-0.4-0.1-0.6-0.4-0.6-0.8c0-0.8-0.1-1.6,0.1-2.3c0.3-0.4,0.8-0.4,1.2-0.4c1.5,0,3.1,0,4.6,0c0.3,0,0.6,0.1,0.8-0.2
		c0.1-0.3-0.2-0.4-0.3-0.6c-0.2-0.2-0.5-0.4-0.3-0.7c0.2-0.3,0.6-0.3,0.8-0.2c1.4,0.3,2.9-0.2,4.4,0.2c0.6,0.2,1.2-0.2,1.8-0.4
		c0.4-0.1,0.7-0.4,1.1-0.4c0.4,0.2,0.6,0.4,0.5,0.8c-1.4,1.1-3,1.4-4.9,1.4c1.1,1,2,1.9,3,2.8c-0.2,0.5-0.1,0.9,0.3,1.3
		c0.6,0.6,1.3,1,1.9,1.7c0.3,0.3,0.7,0.6,1,1c0.2,0.2,0.5,0.4,0.3,0.8c-0.4,0.3-0.6,0-0.9-0.2c-1-0.9-2-1.7-3-2.6
		c-0.6-0.6-1.3-0.9-2.3-0.9c-1.2,0.1-2.4,0-3.6,0.1C103.1,34,102.9,34,102.8,33.9z"/>
	<path class="st13" d="M179.6,24.5c0.7-0.1,1.6,0.3,1.9-0.7c0.3-0.3,0.7-0.2,1.1-0.3c1.2,0.3,2.4,0,3.6-0.4c1.5-0.5,2.8-1.2,4-2.2
		c0.3-0.2,0.5-0.5,0.8-0.5c0.4,0.1,0.7-0.1,1.1-0.3c0.9-0.5,1.9-0.8,2.8-1.3c0.3-0.1,0.6-0.4,1-0.1c-0.8,1.8-2.2,3.1-3.6,4.4
		c-0.3,0.2-0.5,0.5-0.8,0.7c-1,0.8-2.1,1.1-3.2,1.7c-0.2,0-0.4,0-0.6-0.1c-1-0.5-2-0.7-3-0.9c-0.3-0.1-0.5,0-0.7,0.3
		c-1.1,0.2-2.2,0.6-3.2,1.3c0.4,0.2,0.7,0,1.1,0.1c0.2,0.1,0.6,0,0.6,0.4c-0.5,0.3-1.1,0.2-1.6,0.2c-2.6-0.1-4.8,0.7-6.7,2.4
		c-0.7,0.6-1.2,1.3-1.7,2c-0.2,0.3-0.3,0.6-0.6,0.8c-1.3,0.3-2.3,1.1-3.4,1.7c-0.3,0.2-0.6,0.5-1.1,0.3c-0.2-1.1,0.2-2,0.8-2.8
		c3.6-2,7.2-4,10.7-6C179,25,179.3,24.8,179.6,24.5z"/>
	<path class="st14" d="M159.5,9.5c-1-0.9-2-1.8-2.9-2.7c-0.8-0.8-1.4-1.7-1.4-3c0-1.2,0.6-2.1,1.6-2.4c1.1-0.4,2.1-0.1,2.9,0.8
		c0.1,0.1,0.2,0.2,0.3,0.4c0.4-0.3,0.6-0.8,1-0.9c0.8-0.3,1.5-0.2,2.3,0.1c0.3,0.1,0.6,0.3,0.7,0.6c0.4,1.9-0.4,3.4-1.8,4.6
		c-0.6,0.6-1.2,1.1-1.8,1.8C160,9,159.8,9.3,159.5,9.5z"/>
	<path class="st15" d="M123.6,10.6c-0.6,0-1.5,0.2-1.7-0.1c-0.3-0.4,0.3-1,0.5-1.6c0-0.1,0.1-0.3,0.1-0.5c-0.4,0-0.7,0.3-1.1,0.3
		c-1.9,0.2-3.1-1.8-2.3-3.8c0.2-0.5,0.6-1,1-1.4c0.8-0.8,1.7-1.6,2.5-2.4c0.8,0.5,1.6,0.9,2.2,1.7c0.2,0.8,0.9,1.3,1.2,2
		c0.4,0.6,0.4,1.2,0.3,1.8c-0.5,1.2-1.1,1.6-2.4,1.1c-0.6-0.3-0.9-0.2-0.9,0.4c0,0.2,0.2,0.1,0.1,0.1c0,0,0,0,0-0.1
		c0-0.2-0.1-0.5,0.3-0.4C123.4,8.9,123.7,9.7,123.6,10.6z"/>
	<path class="st16" d="M123.6,20.2c0.1,1.1-0.4,2.1-0.8,3c-1.2,2.8-2.5,5.6-3.8,8.4c-0.3,0.7-0.1,0.9,0.6,0.9
		c1.2-0.1,2.4,0.2,3.5-0.2c-0.8,2-1.7,3.9-2.5,5.9c-0.2,0.5-0.4,0.3-0.7,0.1c-1.1-1-2.3-2-3.4-3c-0.3-0.2-0.3-0.4-0.2-0.7
		c1.1-2.5,2.1-5,3.3-7.4c0.6-0.1,1-0.4,1.2-1c0.2-0.5,0.4-1,0.6-1.5c0.6-1.2,1.1-2.5,1.7-3.8C123.1,20.6,123.2,20.2,123.6,20.2z"/>
	<path class="st17" d="M118.6,47.9c-2.1-1.8-4.1-3.7-6.2-5.5c0.3-0.4,0.7-0.4,1.2-0.4c1.5,0,3-0.1,4.5,0.2c0.4-0.1,0.7,0.2,0.9,0.4
		c0.8,0.8,1.7,1.5,2.5,2.3c0.8,0.9,1.8,1.5,2.5,2.4c0.2,0.2,0.5,0.5,0.4,0.7c-0.1,0.3-0.5,0.1-0.7,0.1
		C121.9,48,120.2,48.1,118.6,47.9z"/>
	<path class="st11" d="M24.1,35.5c0.1,1,0.1,2,0,2.9c-0.6,0.2-1.1,0.6-1,1.4c0,0.3-0.2,0.4-0.5,0.5c-1.6,0.6-3-0.1-3.5-1.7
		c0.1-0.4,0-0.7-0.2-1c-0.2-0.3-0.4-0.6-0.6-0.9c-0.4-0.7-0.2-1.1,0.6-1.1c0.7-0.1,1.4,0,2.2,0c0.9,0,1.1-0.2,1.1-1.1
		c0-0.5,0-1.1,0-1.6c0-0.7,0-1.5,0-2.2c0-1.7-0.1-3.3,0-5c0.3-1.3,0.1-2.7,0.1-4c0-0.5,0-1,0-1.5c0-0.5,0-1,0-1.4
		c0-0.3,0-0.6,0.2-0.8c0.5-0.3,1.1-0.3,1.6,0.1c0,0.4,0,0.8,0,1.2c0,0-0.1,0.1-0.1,0.1c-1.2,0.3-1.1,1.3-1,2.2c0,0.3,0,0.6,0,0.9
		c-0.1,1,0.1,1.8,1.1,2.2c0.1,0.6,0.1,1.3,0,1.9c-1.4,0.5-0.9,1.6-1,2.6c0,1.4,0,2.7,0,4.1c0,0.2,0,0.5,0,0.7
		C23,34.6,23.2,35.2,24.1,35.5z"/>
	<path class="st18" d="M42.1,24.5c1.4-0.3,2.9-0.2,4.3,0c0.3,0.2,0.4,0.5,0.5,0.7c0.7,1.7,1.5,3.3,2.2,5c0.1,0.3,0.3,0.7,0,1
		c-1.4,0.4-2.7,0.4-4.1,0C44,29.1,43,26.8,42.1,24.5z"/>
	<path class="st19" d="M168.2,31.3c-0.5,0.8-0.8,1.8-0.9,2.8c0.3,0.3,0.2,0.7,0.2,1c0,0.9,0.1,1.8,0.4,2.6c0.3,1.3,1.1,2.2,1.8,3.2
		c0.1,0.3,0.4,0.6,0.2,1c-1,0.4-1.9,1.1-3,1.2c-1.6-1.5-2.9-3.2-3.4-5.4c1-0.2,1.8-0.8,2.7-1.2c0.4-0.2,0.4-0.6,0.4-1
		c0-2.4,0.6-4.5,2.1-6.3c0.5-0.6,1-1.1,1.5-1.5c0.3,0.4,0.2,0.8-0.1,1.1C169.5,29.6,168.9,30.5,168.2,31.3z"/>
	<path class="st20" d="M149.8,14.5c-0.3,0-0.5,0-0.8,0c-0.5,0-0.8,0.2-0.8,0.8c0.1,2.1-0.2,4.2-0.2,6.3c-1.2,0.4-2.3,0.6-3.4-0.2
		c0-2.3,0-4.7,0-7c0-0.5,0.2-0.6,0.7-0.6c1.5,0,3,0,4.5,0C149.8,14,149.8,14.2,149.8,14.5z"/>
	<path class="st21" d="M58.8,29.9c0-1.7,0-3.4,0-5c0.1,0,0.2,0,0.3,0c2.4,0.1,2.4-0.1,2.3-2.4c0-0.7,0-1.4,0-2.1
		c0-0.6,0.2-0.8,0.8-0.8c0.6,0,1.2,0,1.8,0c0,1.6,0,3.2,0,4.9c-0.4,0.4-0.9,0.2-1.4,0.3c-0.6,0-0.9,0.2-0.9,0.9c0,1.1,0,2.3,0,3.4
		c0,0.6,0.3,0.9,0.9,0.9c0.5,0,1-0.1,1.4,0.3c0,0.3,0,0.7,0,1c-0.9,0.5-1.8,0.3-2.7,0.1c-0.1-0.1-0.2-0.1-0.2-0.2
		c-0.2-0.8-0.7-1.1-1.5-1C59.3,30.2,59,30.1,58.8,29.9z"/>
	<path class="st22" d="M198.7,37.4c-1.6,0.5-3.1,1.3-4.5,2.2c-0.2,0.1-0.4,0.2-0.6,0.2c-0.2-0.2-0.1-0.4,0-0.6
		c1.1-2.1,1.6-4.3,1.1-6.7c0.1-0.5,0.5-0.7,0.9-0.9c0.8-0.4,1.5-0.8,2.3-1.1C199.1,32.6,199.3,34.9,198.7,37.4z"/>
	<path class="st23" d="M134,10c-1-1.3-1.9-2.6-3-3.7c-0.4-0.4-0.2-0.6,0-0.9c1-1.2,1.9-2.4,2.9-3.7c0.8-0.2,1,0.5,1.3,0.9
		c0.2,0.9,0.8,1.4,1.3,2.1c0.8,1,0.8,1,0.1,2.1c-0.2,0.3-0.5,0.6-0.5,1.1c-0.3,0.9-1,1.5-1.7,2.1C134.4,10.1,134.2,10.1,134,10z"/>
	<path class="st24" d="M74.6,38.6c4.4,0,8.8,0,13.2,0c0.4,0,0.8,0,1.1,0.2C85.2,42.2,78.2,42.1,74.6,38.6z"/>
	<path class="st25" d="M89.1,30.3c0-0.2,0-0.4-0.2-0.5c-0.2-0.6-0.7-0.8-1.2-1c0-0.9,0-1.8,0-2.8c1.2-0.1,1.1-0.9,1.1-1.8
		c-0.1-2.4,0-4.8,0.2-7.2c0-0.2,0-0.4,0-0.6c0-0.6,0-1.2,0-1.8c0-0.5,0.2-0.8,0.8-0.8c0.9,0,1.7,0,2.6,0c0.5,0,0.6,0.1,0.6,0.6
		c0,1.7,0,3.5,0,5.2c-0.3,0.4-0.7,0.3-1.1,0.3c-0.4,0-0.7,0-1.1,0c-1.2,0-1.2,0-1.2,1.2c0,1.3,0,2.6,0,3.9c0,1.5,0,3,0,4.4
		c0,0.3,0,0.6-0.2,0.8C89.3,30.3,89.2,30.3,89.1,30.3z"/>
	<path class="st26" d="M102.8,33.9c1.7-0.4,3.5-0.1,5.3-0.1c0.5,0,0.8,0.5,1.1,0.7c1.1,1,2.2,1.9,3.3,2.9c0.2,0.1,0.3,0.4,0.6,0.1
		c0.5-0.1,0.8,0.3,1.1,0.6c0.3,0.3,0.6,0.6,0.9,0.9c0.2,0.3,0.7,0.5,0.5,1c-0.6,0.2-0.9-0.2-1.3-0.6c-0.8-0.9-1.8-1.2-3-1.1
		c-0.9,0.1-1.8,0-2.8,0c-0.4,0-0.7,0-1.1-0.3C105.9,36.7,104.3,35.4,102.8,33.9z"/>
	<path class="st27" d="M166.9,43.1c1-0.4,1.8-1.1,3-1.2c0.3,0,0.5,0.2,0.8,0.4c2,1.6,4.3,2.5,6.7,3c0.4,0.1,0.9,0.1,1.2,0.4
		c-0.9,0.8-2.1,1.2-3.1,1.7C172.2,46.8,169.3,45.5,166.9,43.1z"/>
	<path class="st28" d="M107.5,38.1c1.4,0,2.9,0.1,4.3,0c1-0.1,1.8,0.3,2.5,1c0.4,0.4,0.7,0.8,1.3,0.7c0.4-0.2,0.6,0.2,0.8,0.4
		c0.5,0.5,1,1,1.5,1.5c0.1,0.1,0.3,0.3,0.3,0.5c-0.3,0.3-0.6,0.1-0.9,0.1c-1.7-0.1-3.3-0.2-5,0.1C110.7,41,109.1,39.6,107.5,38.1z"
		/>
	<path class="st29" d="M53.1,36.5c0.6,1.4,1.3,2.9,1.9,4.3c0.2,0.4,0,0.5-0.3,0.5c-1.6,0-3.2,0-4.9,0c-0.3,0-0.5-0.2-0.6-0.4
		c-0.5-1.2-1.1-2.5-1.6-3.7c0.4-0.3,0.8-0.2,1.2-0.3c1.2,0,2.4,0.2,3.5-0.5C52.6,36.3,52.9,36.4,53.1,36.5z"/>
	<path class="st30" d="M176.8,23.5c-0.2,0.2-0.3,0.2-0.5,0.1c-0.8-0.3-1.7-0.5-2.4-0.8c-1.2-0.5-2.1,0-3,0.6
		c-0.2,0.1-0.2,0.3-0.3,0.5c-1.4-1.3-3-2.5-4-4.2c0.4-1,1.9-1.5,2.8-0.9c0.7,0.7,1.1,1.6,2,2.1c0.2,0.1,0.3,0.2,0.4,0
		c1.3,0.3,2.1-0.6,3.1-1.1c0.9,0.2,1.5,0.9,2.3,1.2c0.2,0.6-0.3,0.8-0.7,1c-0.3,0.2-0.7,0.2-0.7,0.6c0,0.4,0.4,0.4,0.7,0.5
		C176.7,23.2,176.9,23.3,176.8,23.5z"/>
	<path class="st31" d="M34.6,27c0.1,0.2,0.1,0.4,0.2,0.5c0.3,0.4,0,0.7-0.1,1c-0.2,0.4-0.3,0.8-0.5,1.2c-0.2,0.6-0.1,0.8,0.6,0.9
		c0.6,0,1.2,0,1.8,0c0.3,0,0.7,0,1,0.2c-0.4,1-0.8,2-1.3,2.9C36,34,35.6,34,35.2,34c-0.7,0-1.3,0-2,0c-0.5,0-0.9,0.1-1.2,0.5
		c-0.2,0.3-0.4,0.6-0.8,0.4c-0.4-0.2-0.9-0.4-0.7-1c0.9-2.3,1.9-4.5,3-6.8C33.8,26.9,34.2,26.8,34.6,27z"/>
	<path class="st32" d="M53.1,36.5c-1.7,1-3.6,0.7-5.4,0.7c-0.5-1-1-2-1.4-3.1c1-0.2,1.9,0,2.9-0.1c0.9,0,1-0.2,0.7-1
		c-0.2-0.6-0.7-1.1-0.6-1.8c-0.8-2-1.6-3.9-2.4-5.9c-0.1-0.2-0.2-0.4,0.1-0.6c0.4,0,0.8,0.2,1.1,0.4c0.5,0.9,1,1.9,1.4,3
		c-0.4,0.4-0.3,0.8-0.1,1.3c0.4,1.1,0.9,2.1,1.3,3.2c0.2,0.7,0.6,1.1,1.3,1.2C52.3,34.6,52.7,35.5,53.1,36.5z"/>
	<path class="st33" d="M37.6,30.8c-1,0-2,0-2.9,0c-0.9,0-1.1-0.3-0.7-1.1c0.3-0.7,0.6-1.4,0.9-2.1c0.4-0.6,0.6-1.3,1-1.9
		c0.2-0.2,0.3-0.5,0.5-0.5c1.2-0.2,2.5-0.5,3.7,0.2C39.3,27.1,38.5,29,37.6,30.8z"/>
	<path class="st34" d="M1.2,30.9c0,0.9,0,1.8,0,2.8c0.4,0.8,0.2,1.7,0.2,2.5c0,1.2,0.1,1.2,1.2,1.2c0.5,0,0.9,0,1.4,0c1,0,1,0.1,1,1
		c0,0.1-0.1,0.2,0.1,0.2C5,38.3,5,37.9,5,37.4c0-0.6,0.5-0.8,1.4-0.4c0,1.3,0,2.5,0,3.8c0,0.5-0.3,0.5-0.6,0.5c-1.3,0-2.6,0-3.9,0
		c-0.7,0-0.9-0.2-0.9-0.9c0-5.4,0-10.9,0-16.3c0-3.2,0-6.4,0-9.5c0-0.3-0.1-0.6,0.1-0.9c0.5,1.3,0.4,2.6,0.1,3.8c0,1.7,0,3.5,0,5.2
		c0.2,0.3,0.2,0.6,0.2,1c0,2,0,4.1,0,6.1C1.4,30.3,1.5,30.6,1.2,30.9z"/>
	<path class="st35" d="M22.5,17.9c0,0.2,0,0.5,0,0.7c-0.8-0.1-1.6-0.3-2.5-0.3c-0.6,0-1,0.2-0.9,0.9c0,0.7,0,1.4,0,2.1
		c0,1.1,0,2.1,0,3.2c0,2,0.1,4,0,6C19,30.8,18.9,31,18.7,31c-0.1,0-0.2-0.1-0.1-0.2c0.4-0.2,0.2-0.6,0.2-0.8c0-5.1,0-10.2,0-15.3
		c0-0.8,0.3-1,1-1c1.2,0.1,2.5,0,3.7,0c0.5,0,0.7,0.2,0.7,0.7c-0.1,0.7,0,1.5-0.1,2.2c-0.8,0.3-1.1,0.2-1.5-0.7
		C22.8,16.7,22.9,17.3,22.5,17.9z"/>
	<path class="st19" d="M1.2,17.6c0-1.3,0-2.6-0.1-3.8c1.2-0.2,2.5,0,3.8-0.1c0.2,0,0.4,0.1,0.5,0.3c0.9,1.2,1.8,2.3,2.7,3.5
		C5.8,17.8,3.5,17.5,1.2,17.6z"/>
	<path class="st36" d="M22.3,32.9c0,0.6,0,1.3,0,1.9c0.1,0.8-0.4,1.1-1.1,1.1c-0.8,0-1.6,0-2.4,0c-0.7,0-0.8,0.2-0.5,0.8
		c0.2,0.4,0.5,0.8,0.8,1.1c0.3,0.3,0.2,0.6,0,0.9c-0.2,0.1-0.3,0-0.4-0.2c-0.4-0.5-0.9-1.1-1.3-1.6c-0.4-0.6-1-1.1-1.8-1
		c-0.5-0.6-1-1.3-1.5-1.9c0.7-0.5,1.3,0,1.9,0.4c-0.1-0.5-0.5-0.8-0.2-1.2c0.3-0.4,0.8-0.5,1.3-0.5c1.4,0,2.9,0,4.3,0
		C21.8,32.6,22.1,32.6,22.3,32.9z"/>
	<path class="st37" d="M63.9,32.7c0,1.3,0,2.7,0,4C63.5,37,63,36.9,62.5,37c-0.9,0.1-1,0.2-1.1,1.1c0,0.8,0,1.6,0,2.3
		c0,0.6-0.2,0.9-0.9,0.9c-1.9,0-1.9,0-1.9-1.8c0-0.8,0-1.6,0-2.4c0-0.1,0-0.2,0.1-0.3c0.4-0.2,0.8-0.2,1.3-0.2
		c0.6,0,0.9-0.3,0.9-0.9c0-0.6,0-1.3,0-1.9c0-0.3,0-0.7,0.2-1C62,32.3,63,32.2,63.9,32.7z"/>
	<path class="st38" d="M34.7,37.4c-0.6,1.3-1.1,2.5-1.7,3.8c-1.4,0.2-2.7,0.1-4.1,0.1c-0.7,0-0.4-0.5-0.3-0.8c0.3-0.6,0.1-1-0.4-1.3
		c0.3-0.8,0.6-1.7,1.1-2.4c0.3-0.3,0.7-0.2,0.9,0c0.5,0.5-0.2,1-0.2,1.4c0.1-0.4,0.2-0.9,0.8-1c1.2-0.1,2.3-0.1,3.5,0
		C34.5,37.2,34.6,37.3,34.7,37.4z"/>
	<path class="st39" d="M197.8,30.4c0,0.3-0.3,0.4-0.5,0.5c-0.9,0.5-1.8,0.8-2.6,1.5c-0.7-0.5-0.9-1.4-1.4-2c-1.3-1.9-3-3.4-5.2-4.3
		c-0.2-0.1-0.4-0.2-0.5-0.4c-0.1-0.2,0-0.3,0.2-0.4c0.2,0.1,0.3,0.1,0.5,0.2c1.1,0.2,2,0.8,2.8,1.5c0.7,0.6,1.3,0.6,2.1,0.2
		c0.4-0.3,0.9-0.5,1.3-0.8C196,27.4,197.1,28.8,197.8,30.4z"/>
	<path class="st40" d="M194.8,7c1.6,1.8,2.5,4,2.5,6.4c-0.7,0.4-1.5,0.6-2.2,1c-0.2,0.1-0.5,0.1-0.7-0.1c0,0-0.1-0.1-0.1-0.1
		c-0.1-2-0.8-3.9-1.8-5.6C192.5,7.5,193.6,6.8,194.8,7z"/>
	<path class="st16" d="M22.3,32.9c-1.7,0-3.3,0-5,0c-0.3,0-0.5,0-0.8,0.1c-0.5,0.1-0.8,0.4-0.3,0.9c0.1,0.1,0.2,0.3,0.3,0.4
		c0.1,0.2,0.2,0.4,0,0.6c-0.2,0.2-0.4,0-0.5-0.2c-0.5-0.6-1.1-0.8-1.8-0.7c-0.4-0.4-0.8-0.9-1.1-1.4c0.4,0.1,0.9-0.1,1.3,0.2
		c0.2,0.1,0.3,0.1,0.5,0c0.1-0.1,0.1-0.3,0-0.4c0-0.1-0.1-0.1-0.1-0.2c-0.2-0.4-0.7-0.6-0.5-1.1c0.3-0.5,0.8-0.2,1.3-0.3
		c0.9-0.1,1.8,0.2,2.7-0.2c0.1,0.1,0.1,0.1,0.2,0.2c0.3,0.3,0.3,0,0.4-0.2c1.1-0.4,2.3-0.4,3.4,0C22.3,31.4,22.3,32.1,22.3,32.9z"/>
	<path class="st26" d="M97.1,30.6c0,0.7,0,1.5,0,2.2c0,0.7,0.3,0.9,0.9,0.9c1,0,2.1,0,3.1,0c0,1.4,0,2.8,0,4.2
		c-0.3,0.3-0.7,0.3-1.1,0.3c-0.9,0-1.9,0.1-2.8-0.1c-0.1,0-0.2-0.1-0.3-0.2c-0.3-0.7-0.2-1.4-0.2-2c0-0.7-0.1-1.3-0.8-1.6
		c-0.1-0.5,0-1,0-1.5c1-0.4,0.6-1.4,0.8-2.1c0.1-0.1,0.2-0.2,0.4-0.2C97,30.6,97,30.6,97.1,30.6z"/>
	<path class="st41" d="M74.3,24.7c0,1.7,0,3.5,0,5.2c0,0.2-0.1,0.3-0.2,0.3c-1.1,0.1-2.3,0.4-3.4-0.1c0-1.8,0-3.6,0-5.4
		C71.9,24.3,73.1,24.3,74.3,24.7z"/>
	<path class="st42" d="M34.7,37.4c-0.9,0-1.9,0-2.8,0c-0.9,0-1.7,0-1.9,1.2c-0.2-0.4-0.1-0.5,0-0.7c0.4-1,0.4-1.1-0.7-1.2
		c0.3-1,0.7-1.9,1.2-2.8c0,0.6,0.6,0.5,0.9,0.9c0.1,0.2,0.3,0,0.4-0.2c0.3-0.8,1-0.9,1.7-0.9c1,0,2,0,2.9,0
		C35.8,34.9,35.2,36.2,34.7,37.4z"/>
	<path class="st43" d="M79.2,35.3c-0.2,0.4-0.6,0.3-0.9,0.3c-0.1,0-0.3,0-0.4,0.2c0,0.2,0.1,0.3,0.2,0.4c0.4,0.3,0.9,0.5,1.5,0.8
		c-0.8,0.1-1.4-0.2-1.9-0.6c-0.6-0.4-1.2-0.6-1.9-0.6c-1.2,0-2.3,0-3.5,0c-0.6-0.9-1.1-2-1.2-3.1c0.3-0.3,0.6-0.2,1-0.3
		c0.6,0,1.2,0.1,1.8,0c0.7-0.1,1.3,0,1.8,0.6c0.3,0.4,0.9,0.3,1.4,0.5C77.6,34.1,78.3,34.9,79.2,35.3z"/>
	<path class="st44" d="M6.4,37c-0.4,0.2-1.1-0.4-1.2,0.5c0,0.5,0,1,0,1.6C5.1,39,5,39,5,39c-0.1-1.3-0.1-1.2-1.3-1.3
		c-0.8,0-1.8,0.4-2.3-0.2C0.9,37,1.2,36,1.2,35.3c0-0.5,0-1,0-1.6c0.8,0,1.6,0,2.4,0c0.6,0,1.2-0.1,1.7,0.5c0.2,0.3,0.7,0.1,1.1,0.2
		C6.4,35.3,6.4,36.2,6.4,37z"/>
	<path class="st45" d="M194.4,14.3c0.6,0.1,1-0.3,1.5-0.5c0.4-0.2,0.9-0.4,1.4-0.4c-0.1,1.9-0.3,3.7-1.4,5.4
		c-1.4,0.4-2.6,1.1-3.9,1.7c-0.3,0.1-0.6,0.5-0.9,0c-0.1-0.3,0.2-0.5,0.4-0.7c1.3-1.4,2.3-3,2.6-4.9C194,14.7,194.1,14.4,194.4,14.3
		z"/>
	<path class="st24" d="M95.9,32.7c0,0.5,0,1,0,1.6c0.2,0.3,0.2,0.6,0.2,1c0,0.5,0,0.9,0.5,1.2c0.5,0.4,0.1,1,0.3,1.4l0,0
		c0.4,0.6,0.2,1.3,0.3,1.9c0,1,0.1,1.1,1.1,1.1c0.6,0,1.2,0,1.8,0c0.3,0,0.7,0,1,0.3c-0.1,0.3-0.3,0.2-0.5,0.2c-1.3,0-2.7,0-4,0
		c-0.6,0-0.8-0.2-0.8-0.8c0-5.3,0-10.5,0-15.8c0-3.4,0-6.9,0-10.3c0-0.7,0.2-0.9,0.9-0.9c3.5,0,6.9,0,10.4,0c0.4,0,0.8,0,1.1,0.1
		c-0.4,0.4-0.9,0.3-1.3,0.3c-3.1,0-6.3,0-9.4,0c-1,0-1,0-1.2,1c0,0.5,0,1,0,1.5c0,0.2-0.1,0.4,0.1,0.6c1.1,1.4,0.5,3,0.8,4.5
		c0.1,0.7,0,1.4,0,2.2c0,0.7,0,1.4-0.6,2c-0.5,0.5-0.2,1.2-0.3,1.8c0,0.5,0,1.1,0,1.6c0,0.8,0,1.6,0,2.5
		C96.1,32.1,96.1,32.4,95.9,32.7z"/>
	<path class="st46" d="M74.3,24.7c-1.2,0-2.4,0-3.6,0c-0.1-1.7-0.1-3.4,0-5c0.7,0,1.5,0,2.2,0c1.1,0,1.7,0.6,1.5,1.7
		C74.3,22.5,74.4,23.6,74.3,24.7z"/>
	<path class="st47" d="M75.9,28.5c0-0.6,0-1.3,0-1.9c0-0.6,0-1-0.8-0.9c-0.3,0-0.4-0.2-0.4-0.5c0-2.5,0-5,0-7.5
		c0-0.4,0.2-0.6,0.6-0.5c0.5,0,0.6-0.2,0.6-0.6c0-0.7,0-1.4,0-2.2c0-0.5-0.2-0.7-0.7-0.7c-1.8,0-3.7,0-5.5,0c-7.6,0-15.2,0-22.9,0
		c0.2-0.3,0.5-0.2,0.7-0.2c9.2,0,18.5,0,27.7,0c0.6,0,0.9,0.1,0.8,0.8c0,5.5,0,11,0,16.6C75.3,30.2,75.6,29.4,75.9,28.5z"/>
	<path class="st48" d="M194.8,7c-0.7,0-1.3,0.5-1.9,0.8c-0.3,0.2-0.3,0.5-0.3,0.8c-0.1,0-0.2,0-0.2,0c-1-1.1-2.2-2-3.2-3.1
		c-0.6-0.6-1.4-0.8-2-1.3c-0.7-0.5-0.7-0.7,0.1-1c0.5-0.2,0.9-0.5,1.5-0.5C191.1,3.6,193.1,5,194.8,7z"/>
	<path class="st4" d="M132,33c0.8,0,1.7,0,2.5,0c0.5,0,1-0.1,1.5-0.4c0.4,0,0.5,0.3,0.6,0.5c0.4,1,1,1.9,1.3,3
		c0.1,0.2,0.2,0.5,0.1,0.7c-0.1,0.2-0.3,0.4-0.5,0.4c-1.2,0.2-2.4,0.3-3.6-0.1C133.1,35.8,132.5,34.4,132,33z"/>
	<path class="st2" d="M133.8,37.2c1,0,2,0,3.1,0c0.4,0,0.8,0,0.9-0.5c0.4,0,0.4,0.3,0.5,0.6c0.4,0.7,0.7,1.5,1.2,2.2
		c0.8,1.8,0.8,1.8-1.1,1.8c-0.9,0-1.9,0.1-2.8-0.1C134.9,39.9,134.3,38.6,133.8,37.2z"/>
	<path class="st26" d="M95.9,15.2c0-0.2,0-0.3,0-0.5c-0.1-0.7,0.2-0.9,0.9-0.9c3.8,0,7.5,0,11.3,0c1.4,0.1,2.7,0.6,3.8,1.6
		c-0.1,0.5-0.6,0.6-1,0.7c-1.8-1-3.8-1.3-5.9-1.2c-0.6,0-1.3,0.1-1.9,0.3c-1.6,0.5-3.2,0.3-4.8,0.1c-0.5-0.4-1.1-0.6-1.7-0.1
		C96.3,15.3,96.1,15.4,95.9,15.2z"/>
	<path class="st31" d="M169.4,18.8c-1.1-0.4-2,0.2-2.8,0.9c-1-1.4-1.7-2.9-1.8-4.6c0.1-0.4-0.2-0.9,0.2-1.1c0.6-0.4,1.3-0.8,2-0.9
		c0.5-0.1,0.7,0.8,0.7,1.1C167.9,15.9,168.7,17.3,169.4,18.8z"/>
	<path class="st46" d="M75.9,28.5c0.1,0.8-0.1,1.6,0.2,2.4c0.1,0.9,0.4,1.7,0.9,2.5c-0.7,0.2-1.3,0.3-1.8-0.5
		c-0.1-0.2-0.4-0.5-0.7-0.4c-1.1,0.3-2.3,0-3.4,0.1c-0.3-0.8-0.4-1.7-0.3-2.6c0.9,0,1.9,0,2.8,0c0.3,0,0.6,0.1,0.8-0.2
		c0.2,0,0.4-0.2,0.3-0.4C74.7,28.7,75.2,28.5,75.9,28.5z"/>
	<path class="st49" d="M160.7,37.5c-2.1,0.1-4.3-0.4-6.4-0.3c-0.1,0.2-0.3,0.2-0.5,0.2c-1.3-0.1-2.6,0.3-3.8-0.2c-0.2,0-0.3,0-0.5,0
		c-0.4,0-0.9,0.2-0.9-0.6c0-0.6,0.2-1,0.9-1c0.1,0,0.2,0,0.3,0c0.1,0.5,0.5,0.3,0.8,0.3c2.9,0,5.8,0.1,8.7,0c0.9,0,1.3,0.2,1.3,1.1
		C160.7,37.2,160.7,37.4,160.7,37.5z"/>
	<path class="st33" d="M63.9,30.3c-0.6,0-1.2,0-1.7,0c-0.6,0-0.8-0.3-0.8-0.9c0-1.4,0-2.8,0-4.1c0-0.5,0.3-0.7,0.8-0.7
		c0.6,0,1.2,0,1.8,0C63.9,26.4,63.9,28.4,63.9,30.3z"/>
	<path class="st50" d="M58.7,36.9c0,1.2,0,2.4,0,3.5c0,0.5,0.1,0.8,0.7,0.8c2.1-0.1,1.7,0.3,1.7-1.7c0-0.6,0-1.3,0-1.9
		c0-0.6,0.3-1,0.9-1c0.6,0,1.2,0,1.8,0c0,1.4,0,2.7,0,4.1c0,0.4-0.1,0.6-0.6,0.6c-1.4,0-2.8,0-4.2,0c-0.5,0-0.7-0.1-0.7-0.6
		c0-1.3,0-2.6,0-3.9C58.7,36.8,58.7,36.8,58.7,36.9z"/>
	<path class="st2" d="M137.6,36.2c-0.6-1.2-1.2-2.3-1.7-3.5c-0.9-2.1-1.8-4.2-2.7-6.2c-0.5-1.2-1.1-2.5-1.7-3.7
		c-0.2-0.5-0.1-0.9,0-1.3c0.4,0,0.4,0.3,0.5,0.6c0.3,0.6,0.6,1.3,0.9,2c0.3,0.7,0.6,1.2,1.3,1.4c0.5,1,1,2,1.4,3.1
		c-0.5,0.1-0.7,0.3-0.4,0.8c0.5,1.2,1,2.3,1.5,3.5c0.2,0.5,0.7,0.4,1.1,0.6c0.4,0.8,0.8,1.6,1,2.4C138.7,36.5,138.1,36.2,137.6,36.2
		z"/>
	<path class="st51" d="M101,41.2c-1.1,0-2.2,0-3.4,0c-0.6,0-0.8-0.2-0.8-0.8c0-0.8,0-1.7,0-2.5c1.4,0,2.8,0,4.1,0
		C101,39,101,40.1,101,41.2z"/>
	<path class="st52" d="M49.2,31.1c0.4,0.8,0.8,1.6,1.1,2.4c0.2,0.4-0.1,0.7-0.4,0.7c-1.2,0-2.4,0.2-3.7-0.1
		c-0.5-0.9-0.9-1.8-1.2-2.8c1.1,0,2.2,0,3.2,0C48.6,31.3,48.9,31.3,49.2,31.1z"/>
	<path class="st26" d="M194.5,26.3c-0.3,0.5-2.2,1.5-2.7,1.4c-0.1,0-0.2-0.1-0.2-0.1c-1-1-2.2-1.5-3.3-2.2c1-0.7,2.1-1.1,3.2-1.5
		C192.5,24.7,193.5,25.5,194.5,26.3z"/>
	<path class="st50" d="M89.3,16.9c-0.2,2.7-0.2,5.4-0.2,8.1c0,0.8-0.2,1.1-1,0.9c-0.1,0-0.3,0-0.4,0c0-2.9,0-5.8,0-8.7
		C88.2,17,88.7,16.8,89.3,16.9z"/>
	<path class="st53" d="M91.1,36.3c-1.2,0-2.5,0-3.7,0c-0.5,0-0.8-0.3-0.5-0.6c0.6-0.7,1-1.5,1.4-2.3c1,0.1,1.9,0.1,2.9,0.1
		c0.4,0,0.8-0.1,1,0.4C92.1,34.8,91.7,35.6,91.1,36.3z"/>
	<path class="st54" d="M92.4,33.9c-1-0.4-2-0.1-3-0.2c-0.4,0-0.8,0.1-1-0.3c0.4-1,0.7-2,0.7-3.1c0.1,0,0.1,0,0.2,0
		c0.5,0.4,1.2,0.4,1.8,0.5c0.6,0,1.3-0.2,1.9,0.2c0.1,0.2,0.1,0.4,0,0.6C92.9,32.3,92.7,33.1,92.4,33.9z"/>
	<path class="st55" d="M18.9,38.4c0.1,0.1,0.2,0.1,0.3,0.2c0.7,1.4,2,2,3.3,1.5c0.3-0.1,0.3-0.3,0.3-0.5c-0.2-1,0.3-1.4,1.2-1.2
		c0,0.8,0,1.6,0,2.4c0,0.4-0.1,0.5-0.5,0.5c-1.1,0-2.1,0-3.2,0c-0.3,0-0.5-0.1-0.7-0.3c-0.6-0.8-1.2-1.6-1.8-2.4
		C18.2,38.2,18.5,38.2,18.9,38.4z"/>
	<path class="st56" d="M149.8,25.4c-1.2,0-1.2,0-1.2-1.2c0-1.7,0-3.4,0-5.2c0-1.2,0-1.2,1.2-1.2C149.8,20.3,149.8,22.9,149.8,25.4z"
		/>
	<path class="st57" d="M149.1,3.5c0.2-2.1-1-3-2.8-2.9c1.8-0.7,3.2,0.6,3.3,2.1c0,0.5,0.2,0.7,0.7,0.8c1.3,0.4,2,1.9,1.6,3.2
		c-0.4,1.2-1.8,1.9-3.2,1.5c-0.1,0-0.2-0.1-0.4-0.1c0.1,0.5,0.4,0.9,0.7,1.2c0.2,0.3,0.5,0.7,0.9,1.1c-0.7-0.1-1.2-0.2-1.7-0.3
		c0.1,0,0.3-0.1,0.2-0.2c-0.5-0.5-0.5-1.2-0.9-1.8c-0.1-0.2-0.4-0.4-0.2-0.7c0.2-0.2,0.4-0.1,0.6,0c0.5,0.2,1,0.2,1.5,0.1
		c0.8-0.1,1.3-0.6,1.5-1.3c0.1-1.5-0.1-1.9-1.4-2.5C149.4,3.8,149.2,3.7,149.1,3.5z"/>
	<path class="st58" d="M118.6,47.9c1.9,0,3.7,0,5.7,0c-0.9-1.2-2.2-2-3.1-3.1c0.1-1,0.8-0.4,1.2-0.5c1.6,1,2.8,2.5,4.2,3.8
		c-1.5,0-3,0-4.4,0c-0.9,0-1.8,0-2.8,0C119.1,48.1,118.8,48.3,118.6,47.9z"/>
	<path class="st59" d="M124.6,3.1c-0.3-0.6-0.9-0.8-1.3-1.1c-0.3-0.2-0.6-0.3-0.7-0.7c0.3-0.5,0.6-0.4,0.9-0.1
		c0.8,0.8,1.7,1.6,2.5,2.5c0.6,0.7,1.1,1.4,1.1,2.4c0.1,2.1-1.4,3.3-3.5,2.4c-0.1,0.6,0.2,1.1,0.4,1.5c0.3,0.6,0.2,0.8-0.5,0.6
		c-0.5-0.9-0.3-1.8-0.3-2.7c0.3-0.3,0.6,0,0.9,0.1c1,0.3,1.6,0,2-1c0-0.8,0.2-1.5-0.4-2.2C125.5,4.1,124.9,3.7,124.6,3.1z"/>
	<path class="st60" d="M6.4,26.3c-0.8,0.1-1.1-0.2-1.1-1c0.1-1.4,0-2.8,0-4.4c1.3,1.5,2.4,3,3.5,4.5c-0.2,0.3-0.5,0.5-0.9,0.4
		c-0.4-0.5-0.9-1-1.4-1.6C6.4,24.9,6.4,25.6,6.4,26.3z"/>
	<path class="st61" d="M114.1,17.9c1.4,2.5,1.5,5.1,0.2,7.7c-0.4,0.1-0.6-0.1-0.7-0.4c-0.1-0.7,0.2-1.4,0.3-2.1
		c0.1-1.6-0.3-3-0.7-4.5C113.2,18.1,113.7,18,114.1,17.9z"/>
	<path class="st62" d="M159.5,9.5c0-0.4,0.4-0.6,0.5-0.9c0.7-0.6,1.4-1.1,1.9-1.7c0.4-0.4,0.8-0.7,1.1-1.2c0.7-1,0.9-2,0.5-3.1
		c-0.2-0.9-1-0.7-1.6-0.9c-0.3-0.1-0.7,0-1.1,0c0.9-0.6,1.9-0.6,2.7,0c0.9,0.6,1.2,1.5,1,2.6c-0.2,1.3-1,2.2-2,3.1
		c-0.9,0.8-1.8,1.5-2.6,2.5C159.7,10.3,159.7,9.7,159.5,9.5z"/>
	<path class="st63" d="M135.2,2.7c-0.3-0.5-0.6-0.9-1.2-1.1c0.2-0.3,0.3-0.6,0.7-0.8c1.1,1.6,2.2,3.2,3.5,4.6c0.3,0.3,0.2,0.6,0,0.8
		c-1.3,1.4-2.4,2.9-3.5,4.5c-0.4-0.2-0.5-0.5-0.6-0.8c1-0.5,1.6-1.3,2-2.3c0.1-0.5,0.5-0.8,0.8-1.2c0.5-0.6,0.6-1.1,0-1.6
		c-0.1-0.1-0.2-0.2-0.3-0.4C136.1,3.9,135.5,3.4,135.2,2.7z"/>
	<path class="st64" d="M24.1,24.5c-1.1-0.1-1.4-0.4-1.4-1.4c0-0.9,0-1.8,0-2.7c0-0.8,0.1-1.2,1-1.2c0.1,0,0.3-0.1,0.4-0.1
		C24.1,21,24.1,22.7,24.1,24.5z"/>
	<path class="st56" d="M134.3,25.4c-0.8,0.1-1.1-0.3-1.4-0.9c-0.4-1-0.9-2-1.4-3c-0.3-0.9-0.7-1.7-1-2.6c0.1-0.3,0.4-0.4,0.7-0.5
		C132.3,20.6,133.4,23,134.3,25.4z"/>
	<path class="st26" d="M129.3,16c-0.7-1.4-1.5-1.7-3.1-1.4c-0.3,0.1-0.4,0.3-0.5,0.5c-0.2,0.3-0.2,0.8-0.5,1.1
		c-0.3,0-0.6-0.1-0.5-0.5c0.1-0.6,0.5-1.1,0.7-1.7c0.1-0.3,0.3-0.4,0.6-0.4c0.5,0,1,0,1.5,0c2,0,2,0,2.7,2
		C130,16.2,129.7,16.1,129.3,16z"/>
	<path class="st24" d="M48,25.1c-0.4,0-0.8,0.1-1-0.3c-0.3-0.2-0.4-0.4-0.5-0.7c-0.7-1.7-1.4-3.4-2.1-5.1c-0.1-0.3-0.3-0.5-0.2-0.8
		c-0.1-0.2-0.1-0.5-0.2-0.7c-0.2-0.4,0.1-0.6,0.4-0.7C45.7,19.4,46.9,22.2,48,25.1z"/>
	<path class="st65" d="M44.4,16.7c-0.1,0.2-0.2,0.5-0.4,0.7c-0.4-0.6-0.6-1.4-0.9-2c-0.1-0.3-0.2-0.7-0.5-0.9c-0.6-0.3,0-0.5,0-0.7
		c-0.8,0-1.6,0-2.6,0c0.7,0.5,1.5,0.1,2.1,0.5c-0.4,0.3-0.8,0.2-1.2,0.2c-0.9-0.1-1.3,0.3-1.5,1c-0.1,0.3-0.1,0.7-0.4,0.9
		c-0.5,0-0.7-0.1-0.5-0.7c0.7-2.1,0.7-2.1,2.9-2.1c1.8,0,1.8,0,2.5,1.7C44,15.8,44.2,16.2,44.4,16.7z"/>
	<path class="st66" d="M122.4,44.3c-0.3,0.3-1-0.2-1.2,0.5c-1-0.9-2-1.7-2.9-2.6c-0.1-0.1-0.2-0.2-0.4-0.4c-0.1-0.8,0.6-0.5,1-0.7
		C120.1,42.2,121.3,43.2,122.4,44.3z"/>
	<path class="st13" d="M149.8,33.4c-1-0.1-1.2-0.3-1.2-1.2c0-0.8,0-1.6,0-2.4c0-1,0.1-1.1,1.2-1.2C149.8,30.1,149.8,31.8,149.8,33.4
		z"/>
	<path class="st40" d="M51.9,33.7c-0.7,0.1-1.1-0.1-1.4-0.9c-0.5-1.3-1.1-2.6-1.6-3.9c-0.2-0.6-0.1-0.9,0.5-1
		C50.3,29.9,51,31.8,51.9,33.7z"/>
	<path class="st67" d="M137.8,33.4c-0.6,0.3-1,0.2-1.3-0.5c-0.4-1.2-1-2.4-1.5-3.6c-0.1-0.2-0.4-0.4-0.1-0.7c0.3-0.2,0.5-0.2,0.8,0
		C136.5,30.1,137.2,31.7,137.8,33.4z"/>
	<path class="st6" d="M37.7,19.3c-0.8,1.8-1.5,3.6-2.3,5.4c-0.4,0.3-0.7,0.1-0.9-0.2c0.8-1.9,1.6-3.7,2.5-5.6
		C37.3,19,37.6,19.1,37.7,19.3z"/>
	<path class="st68" d="M87.7,28.7c0.8-0.1,1.4,0,1.2,1c-0.1,1.4-0.5,2.6-1.2,3.8c-0.4,0.2-0.7,0.2-0.9-0.3
		C87.7,31.8,87.7,30.3,87.7,28.7z"/>
	<path class="st6" d="M123.6,20.2c-0.7,1.1-1.1,2.4-1.6,3.6c-0.1,0.3-0.3,0.6-0.5,0.9c-0.3,0.2-0.6,0.1-0.8-0.2
		c0.8-1.9,1.6-3.9,2.5-5.7c0.4-0.1,0.5,0.1,0.7,0.4C123.8,19.5,123.7,19.8,123.6,20.2z"/>
	<path class="st69" d="M22.9,33.2c0-1.4,0-2.9,0-4.3c0.4-0.3,0.8-0.3,1.2,0c0.1,1.4,0.1,2.9,0,4.3C23.7,33.5,23.3,33.5,22.9,33.2z"
		/>
	<path class="st70" d="M118.9,41.2c-0.2,0.4-0.9,0.1-1,0.7c-0.8-0.6-1.4-1.5-2.3-2.1c-0.2-0.2-0.5-0.5-0.7-0.7
		c-0.1-0.8,0.4-0.6,0.9-0.7C116.9,39.3,117.9,40.3,118.9,41.2z"/>
	<path class="st71" d="M115.8,38.5c-0.3,0.2-0.8,0.1-0.9,0.7c-0.7-0.4-1.1-1.3-1.9-1.6c-0.5-0.5-0.9-1-1.4-1.6
		c-0.1-0.4,0.3-0.5,0.5-0.7C113.5,36.2,114.6,37.4,115.8,38.5z"/>
	<path class="st72" d="M89.3,16.9c-0.5,0.3-1,0.4-1.5,0.3c0-1.2,0-2.3,0-3.5c1.5-0.2,1.4-0.2,1.5,1.2c0,0.5-0.1,1,0.1,1.4
		C89.3,16.6,89.3,16.7,89.3,16.9z"/>
	<path class="st50" d="M89.3,16.4c-0.3-0.4-0.2-0.8-0.2-1.2c0-1.6,0.2-1.3-1.4-1.4c0.1-0.2,0.3-0.2,0.4-0.2c1.4,0,2.9,0,4.3,0
		c0.4,0,0.6,0,0.6,0.5c0,5.6,0,11.3,0,16.9c0,0.2-0.1,0.3-0.1,0.5c0-0.2,0-0.4-0.1-0.6c-0.2-0.3-0.2-0.6-0.2-0.9c0-1.7,0-3.4,0-5.1
		c-0.1-1.5,0-3,0-4.5c0-0.3,0-0.6,0.2-0.9c0-1.7,0-3.4,0-5.1c0-0.4-0.1-0.6-0.6-0.6c-0.8,0-1.6,0-2.4,0c-0.4,0-0.6,0.1-0.6,0.6
		C89.3,15.1,89.3,15.7,89.3,16.4z"/>
	<path class="st73" d="M137.6,36.2c0.3-0.4,0.9,0.1,1.2-0.4c0.6,1,1,2.1,1.4,3.2c-0.3,0.3-0.7,0.3-1.1,0.5c-0.5-0.9-0.9-1.8-1.4-2.8
		C137.8,36.5,137.7,36.3,137.6,36.2z"/>
	<path class="st74" d="M7.9,25.8c0.3-0.1,0.6-0.2,0.9-0.4c0.4,0.2,0.4,0.7,0.9,0.9c0.1,0.5,0.5,0.9,0.8,1.2c0.5,0.6,0.6,1-0.2,1.4
		C9.4,27.9,8.6,26.8,7.9,25.8z"/>
	<path class="st75" d="M139.2,39.4c0.1-0.7,0.7-0.5,1.1-0.5c0.4,0.6,0.6,1.3,0.9,1.9c0.1,0.3,0.1,0.5-0.3,0.5c-1.7,0-3.4,0-5.2,0
		c-0.1,0-0.1-0.1-0.2-0.1c1.2,0,2.4,0,3.6,0c0.6,0,0.8-0.2,0.5-0.7C139.5,40.1,139.4,39.8,139.2,39.4z"/>
	<path class="st76" d="M63.9,32.7c-0.9,0-1.8-0.1-2.7,0.2c-0.4-0.5-0.4-1,0-1.6c0.9,0,1.8,0,2.7,0C63.9,31.8,63.9,32.2,63.9,32.7z"
		/>
	<path class="st32" d="M114.1,17.9c-0.1,0.4-0.6,0.4-0.9,0.6c-0.1,0-0.1,0-0.2,0c-0.7-0.8-1.4-1.6-2.1-2.5c0.1-0.5,0.7-0.3,0.8-0.7
		C112.9,15.9,113.5,16.9,114.1,17.9z"/>
	<path class="st77" d="M28.2,39.1c1.1,0.1,1.2,0.2,0.7,1.2c-0.4,0.9-0.4,0.9,0.6,0.9c1.2,0,2.3,0,3.5,0c-0.2,0.3-0.5,0.2-0.8,0.2
		c-1.6,0-3.3,0-5,0C27.5,40.5,27.8,39.8,28.2,39.1z"/>
	<path class="st19" d="M112.2,35.3c0,0.4-0.4,0.4-0.5,0.7c-0.7-0.6-1.4-1.2-2.1-1.9c-0.5-0.5-0.7-0.8,0.1-1.2
		C110.5,33.7,111.4,34.5,112.2,35.3z"/>
	<path class="st11" d="M18.9,38.4c-0.3,0-0.6,0-0.9,0.2c-0.7-0.9-1.5-1.9-2.2-2.8c0.4-0.2,0.8-0.3,1.2,0
		C17.6,36.7,18.4,37.4,18.9,38.4z"/>
	<path class="st2" d="M86.8,33.2c0.2,0.3,0.5,0.3,0.9,0.3c-0.6,1.4-1.5,2.2-2.6,2.1c-0.3,0-0.5,0-0.6-0.4
		C85.5,34.8,86.2,34,86.8,33.2z"/>
	<path class="st5" d="M6.4,32.5c-0.8,0.1-1.2-0.2-1.1-1c0-0.3,0-0.7,0-1c-0.1-0.8,0.3-1.1,1.1-1C6.5,30.4,6.5,31.5,6.4,32.5z"/>
	<path class="st78" d="M113.7,25.2c0.2,0.1,0.4,0.2,0.6,0.4c-0.6,1.3-1.5,2.4-2.8,3.2c-0.1-0.3-0.4-0.4-0.4-0.7
		c0-0.1,0.1-0.2,0.2-0.3c0.3-0.2,0.5-0.4,0.8-0.6c0.4-0.4,0.7-0.9,1-1.3C113.3,25.5,113.3,25.2,113.7,25.2z"/>
	<path class="st79" d="M37.7,19.3c-0.3,0-0.5-0.1-0.7-0.4c0.4-1.1,0.9-2.2,1.4-3.2c-0.1,0.4,0.3,0.5,0.5,0.7
		C38.7,17.4,38.2,18.4,37.7,19.3z"/>
	<path class="st80" d="M24.1,28.9c-0.4,0-0.8,0-1.2,0c0-0.4,0-0.8,0-1.2c0-1.2,0-1.2,1.2-1.2C24.1,27.3,24.2,28.1,24.1,28.9z"/>
	<path class="st81" d="M129.3,16c0.2-0.2,0.6-0.1,0.7-0.4c0.5,0.8,0.8,1.8,1.2,2.7c-0.1,0.3-0.4,0.4-0.7,0.5
		C130,17.9,129.7,17,129.3,16z"/>
	<path class="st82" d="M123.9,19.2c-0.2-0.1-0.5-0.2-0.7-0.4c0.4-1.1,0.8-2.1,1.4-3.1c0.2,0.2,0.4,0.4,0.5,0.5
		C124.8,17.2,124.5,18.2,123.9,19.2z"/>
	<path class="st35" d="M22.9,33.2c0.4,0,0.8,0,1.2,0c0.1,0.8,0.1,1.5,0,2.3c-1.2,0-1.2,0-1.2-1.2C22.8,33.9,22.9,33.5,22.9,33.2z"/>
	<path class="st82" d="M120.7,24.5c0.3,0.1,0.5,0.1,0.8,0.2c-0.1,0.8-0.5,1.4-0.8,2.1c-0.2,0.5-0.6,0.6-1.1,0.3
		C119.9,26.2,120.3,25.4,120.7,24.5z"/>
	<path class="st82" d="M34.6,24.5c0.3,0.1,0.6,0.1,0.9,0.2c-0.2,0.8-0.7,1.4-0.9,2.3c-0.4,0.3-0.8,0.2-1.2,0.2
		C33.7,26.2,34.2,25.4,34.6,24.5z"/>
	<path class="st83" d="M22.5,17.9c0-0.7,0-1.4,0-2.2c0.4,0.8,0.9,0.9,1.6,0.8c0.1,0.5,0.1,0.9,0,1.4C23.5,17.9,23,17.9,22.5,17.9z"
		/>
	<path class="st37" d="M58.7,36.9c0,0-0.1,0-0.1,0c0-1.8,0-3.6,0-5.4c0,0,0.1,0,0.1,0c0.1,0.1,0,0,0.1,0.1
		C59.2,33.3,59.2,35.1,58.7,36.9L58.7,36.9z"/>
	<path class="st84" d="M144.6,21.4c1.1,0.3,2.3,0.1,3.4,0.2c0,3.4,0,6.7,0,10.1c-0.4,1-0.5,1.1-1.6,1.1c-0.6,0-1.3,0.2-1.8-0.3
		C144.6,28.8,144.6,25.1,144.6,21.4z"/>
	<path class="st85" d="M144.6,32.5c0.6,0,1.1,0,1.7,0c0.8,0.1,1.4-0.1,1.7-0.9c0,1.3,0,2.7,0,4c0,1.3-0.3,1.6-1.6,1.6
		c-1.9,0-1.9,0-1.9-1.8C144.6,34.4,144.6,33.4,144.6,32.5z"/>
	<path class="st86" d="M150,37.2c1.4,0,2.9,0,4.3,0c0.4,0.4,1,0,1.5,0.3c0,0.3-0.2,0.2-0.4,0.2c-1.5,0-3.1,0-4.6,0
		C150.3,37.7,150,37.7,150,37.2z"/>
	<path class="st87" d="M168.7,16.2c-0.9-2-0.8-4.1,0.3-6c2-3.7,5.1-6.2,9.4-6.9c1.8-0.3,3.5-0.4,5.3,0c1,0.3,1.9,0.9,2.9,1.4
		C186.4,5,186.1,5,185.9,5c-0.9,0.1-1.6,0.6-2.3,1.2c-0.4,0.1-0.8,0-1.2-0.1c-3.2-0.4-5.9,0.5-8.3,2.6c-1.3,1.2-2.1,2.7-2.2,4.5
		c0,0.3,0,0.5-0.1,0.8c-0.5,0.5-1.1,0.7-1.7,1C169.6,15.4,169.1,15.7,168.7,16.2z"/>
	<path class="st8" d="M183.6,6.1c0.7-1.1,1.8-1.3,2.9-1.3c0.9,0.3,1.6,0.8,2.4,1.2c0.1,0,0.2,0,0.3,0c2,1.4,3.7,3.1,4.3,5.6
		c0,0.2,0,0.4-0.2,0.6c-0.8,0.7-1.6,1.4-2.8,1.4c-0.3-0.1-0.3-0.4-0.4-0.6c-0.7-3.2-2.7-5.1-5.6-6.2C184.2,6.5,183.8,6.5,183.6,6.1z
		"/>
	<path class="st88" d="M168.7,16.2c0-0.3,0.1-0.7,0.4-0.8c0.9-0.4,1.6-1.1,2.6-1.3c0.5,0.6,0.4,1.5,0.8,2.2c0.6,1,1.1,2,2,2.9
		c0.2,0.2,0.5,0.4,0.5,0.8c-0.5,0.6-1.3,0.9-2,1.3c-0.4,0.2-0.8-0.1-1.1-0.3C170.3,19.6,169.1,18.2,168.7,16.2z"/>
	<path class="st83" d="M193.3,11.5c-0.6-2.1-2-3.6-3.6-5c-0.2-0.2-0.5-0.4-0.7-0.6c0.1-0.2,0.1-0.3,0.2-0.5c1.4,0.8,2.4,2,3.5,3.1
		c1.1,1.7,1.8,3.6,1.7,5.7c-0.3,0.7-0.2,1.4-0.5,2.1c-0.6,1.6-1.6,2.9-2.8,4.2c-0.2,0.2-0.5,0.4-0.7,0.5c-0.4-0.6,0.2-1,0.4-1.3
		c0.8-1.1,1.7-2.2,2.2-3.5C193.6,14.7,193.4,13.1,193.3,11.5z"/>
	<path class="st5" d="M1.2,30.9c0-2.7,0-5.4,0-8.1c1,0,2,0,2.9,0c0.5,0,0.7,0.1,0.7,0.6c0,2.2,0,4.5,0,6.7c0,0.4-0.1,0.5-0.5,0.6
		C3.3,31.1,2.2,30.9,1.2,30.9z"/>
	<path class="st53" d="M193.1,16.4c-0.4,1.3-1.3,2.3-2.1,3.4c-0.3,0.4-0.7,0.7-0.7,1.3c-1.1,1.1-2.5,1.8-4,2.2
		c-0.4-0.1-0.7,0.1-1.1,0.2c-0.8,0.3-1.7,0.3-2.6,0.3c-0.4,0-0.8,0-1.2,0c-0.6,0-1.1,0-1.7,0c-0.1-0.6,0.5-0.7,0.8-1
		c0.5-0.4,1.3-0.5,1.6-1.2c0.2-0.2,0.4-0.2,0.6-0.2c1.9-0.3,3.6-1,4.9-2.4c0.2-0.2,0.4-0.4,0.6-0.4c1.3-0.1,2.1-1,3.2-1.5
		C192.1,16.8,192.5,16.3,193.1,16.4z"/>
	<path class="st89" d="M168.2,31.3c0.3-0.9,1-1.6,1.6-2.3c0.3-0.4,0.6-0.8,0.5-1.3c1.8-1.6,3.8-2.9,6.4-2.8c1,0,2-0.2,3-0.3
		c0,0.3-0.2,0.5-0.5,0.7c-3.5,2-7.1,4-10.6,6C168.4,31.3,168.3,31.3,168.2,31.3z"/>
	<path class="st90" d="M182.2,21.7c0.4,0.5-0.1,0.5-0.3,0.6c-0.7,0.5-1.6,0.7-2.1,1.5c-1,0.1-2-0.3-3-0.3c-0.4-0.4-1.2-0.1-1.3-0.8
		c-0.1-0.7,0.7-0.7,1.1-1c0.2-0.2,0.5-0.3,0.5-0.6c0.3-0.2,0.6-0.1,0.9,0c1.1,0.3,2.2,0.5,3.3,0.4C181.7,21.5,181.9,21.5,182.2,21.7
		z"/>
	<path class="st54" d="M193.5,30.3c0.5,0.6,0.9,1.4,1.2,2.1c0.8,2.5,0.2,4.7-1,6.9c-0.1,0.2-0.2,0.3-0.2,0.5
		c-2.4,3.5-6,5.3-10.1,5.9c-1.6,0.2-3.2,0.5-4.8,0.1c-3.1-0.4-5.9-1.5-8.3-3.4c-0.1-0.1-0.2-0.3-0.3-0.4c-0.1-0.3-0.2-0.6-0.3-0.9
		c0.5-0.1,0.7,0.3,0.9,0.5c0.6,0.6,1.4,1.1,2.1,1.5c0.6,0.4,1.2,0.3,1.9-0.1c0.5-0.3,0.9-0.7,1.5-0.9c1.4,0.3,2.8,0.9,4.3,1
		c4.6,0.2,9.2-1.8,10.3-7c0.2-1,0.2-2.1-0.1-3.1c-0.1-0.2-0.2-0.5-0.1-0.8c0.1-0.3,0.4-0.4,0.7-0.5
		C191.8,31.3,192.7,30.8,193.5,30.3z"/>
	<path class="st33" d="M58.8,36.8c0-1.8,0-3.6,0-5.4c0-0.5,0-1,0-1.6c0.3,0,0.7,0,1,0c1.3,0,1.4,0.1,1.4,1.4c0,0.5,0,1,0,1.6
		c0,1.1,0,2.2,0,3.3c0,0.5-0.1,0.7-0.7,0.7C59.9,36.8,59.3,36.8,58.8,36.8z"/>
	<path class="st91" d="M151.2,6.3c-0.4,1.6-1.2,1.9-3.7,1.3c-0.2,0.2,0.1,0.4,0.1,0.6c-0.4-0.2-0.5-0.7-0.6-1.2
		c1.4,0.4,3,1.3,3.9-0.7C150.9,6.3,151,6.2,151.2,6.3z"/>
	<path class="st92" d="M151.2,6.3c-0.1,0.1-0.2,0.2-0.4,0c0.1-1.3-0.3-2-1.4-2.3c-0.8-0.2-0.9-0.5-0.6-1.1c0-0.1,0-0.3,0.1-0.4
		c0.3,0.3-0.1,0.8,0.3,1.1c0.6,0.2,1.2,0.4,1.6,0.8C151.3,4.9,151.3,5.6,151.2,6.3z"/>
	<path class="st65" d="M44.2,18.1c0.8,1.5,1.3,3.2,2,4.7c0.3,0.6,0.5,1.2,0.7,1.8c-0.2,0.1-0.2,0.3-0.2,0.5
		c-0.2-0.2-0.3-0.4-0.4-0.7c-0.7-1.3-1-2.7-1.9-3.8c-0.3-0.4-0.6-0.5-1.1-0.5c-1.3,0-2.6,0-3.9,0c-1,0-1.2-0.4-0.8-1.3
		c0.5-1,1-2.1,1.4-3.2c0.3-0.7,0.8-0.5,1.3-0.6c0.5,0,1,0,1.2,0.6c0.2,0.5,0.4,1,0.6,1.4C43.4,17.6,43.6,18.1,44.2,18.1z"/>
	<path class="st93" d="M111.3,27.8c-0.1,0.1-0.1,0.1-0.2,0.2c-0.8,0.5-1.8,0.8-2.7,1c-0.2,0-0.5,0.1-0.7,0c-1.6-0.6-3.2,0.3-4.9-0.5
		c0.2,0.7,0.6,0.8,0.8,1.1c0.2,0.2,0.4,0.4,0.3,0.7c-0.1,0.3-0.4,0.3-0.7,0.3c-2,0-4.1,0-6.1,0c0,0,0,0,0,0
		c-0.2-0.3-0.2-0.6-0.2-0.9c0-1.6-0.2-3.2,0.1-4.8c0.1-0.5,0-1.1,0-1.6c0.4-1.2,1.2-1.7,2.5-1.6c0.6,0.1,1.1-0.1,1.7,0.2
		c0.4,0.5,0.2,1.1,0.3,1.7c0,1,0.1,1.1,1.1,1.1c1.3,0,2.6,0,4,0c1.5,0,2.6-0.6,3.2-2c0.5-0.8,2-1.2,3.1-0.8c0.6,0.2,1.1,1.4,0.9,2.3
		c-0.2,0.8-0.4,1.5-1,2.2C112.1,26.8,111.7,27.3,111.3,27.8z"/>
	<path class="st5" d="M190.4,32.2c-1.2-2.3-2.8-4.1-5.3-4.9c-0.9-0.3-1.8-0.5-2.7-0.6c-0.7-0.4-1.4,0-2.3-0.3
		c1.2-0.9,2.3-1.7,3.8-1.6c0.1-0.1,0.2-0.2,0.4-0.2c1.1,0.2,2.3,0.2,3.3,1c1.3,0.6,2.6,1.2,3.7,2.2c0.9,0.7,1.5,1.6,2.2,2.5
		C192.7,31.3,191.5,31.7,190.4,32.2z"/>
	<path class="st94" d="M171.7,32c-0.5,1.5-0.7,3.1-0.4,4.7c-0.7,0.8-1.6,1.1-2.5,1.6c-0.4,0.2-0.8,0-1-0.4c-0.7-1.2-0.5-2.5-0.5-3.8
		c1.1-0.6,2.1-1.2,3.2-1.8C170.9,32.1,171.2,31.9,171.7,32z"/>
	<path class="st26" d="M187.6,25.6c-1.2-0.3-2.4-0.8-3.6-0.9c-0.2-0.3-0.1-0.6,0.3-0.5c1.2,0.3,2.4,0.4,3.5,1
		C187.7,25.3,187.7,25.5,187.6,25.6z"/>
	<path class="st26" d="M182.7,23.8c1.2-0.3,2.3-0.5,3.5-0.7c0.1,0,0.2,0.1,0.2,0.2C185.2,23.9,184,24.1,182.7,23.8z"/>
	<path class="st95" d="M163.6,2.6c0.9,1.6,0,3-0.9,3.9c-0.2,0.2-0.5,0.3-0.6,0.6c-0.2,0.2-0.3,0.1-0.3-0.1c0.3-0.4,0.7-0.7,1-1.1
		C163.5,4.9,163.8,3.8,163.6,2.6z"/>
	<path class="st96" d="M161.8,6.8c0.1,0.1,0.2,0.2,0.3,0.1c-0.5,0.7-1.3,1.2-2,1.6C160.5,7.9,161.1,7.4,161.8,6.8z"/>
	<path class="st97" d="M126.3,7c-0.4,1-1.1,1.4-2.1,1.2c-0.3-0.1-0.7-0.2-1-0.3c-0.3,0.1-0.1,0.5-0.3,0.7c0-0.3,0-0.5,0-0.7
		c0-0.6,0-0.8,0.7-0.4c1.2,0.7,1.8,0.5,2.5-0.6C126.2,6.9,126.2,6.9,126.3,7z"/>
	<path class="st98" d="M126.3,7c-0.2,0.1-0.3,0.1-0.3-0.1c0-0.7,0-1.3-0.4-1.9c-0.1-0.2-0.1-0.3,0.1-0.3
		C126.6,5.3,126.4,6.2,126.3,7z"/>
	<path class="st99" d="M125.8,4.6c0,0.1-0.1,0.2-0.1,0.3c-0.4-0.6-0.8-1.2-1.3-1.8c0,0,0-0.1,0-0.1c0.1,0,0.1,0,0.2,0
		C125,3.6,125.7,3.9,125.8,4.6z"/>
	<path class="st33" d="M22.3,30.6c-1.1,0-2.3,0-3.4,0c0-2,0-4,0-6c1.1-0.5,2.3-0.4,3.4-0.1c0.2,0.4,0.1,0.7,0,1.1
		C22.3,27.3,22.3,28.9,22.3,30.6z"/>
	<path class="st16" d="M18.9,21.3c0-0.8,0-1.7,0-2.5c0-0.2-0.1-0.6,0.3-0.6c1.1,0.1,2.3-0.4,3.3,0.5c0,0.5,0,0.9,0,1.4
		c-0.2,0.5,0.1,1-0.2,1.4C21.2,21.5,20,21.7,18.9,21.3z"/>
	<path class="st35" d="M22.3,21.4c0.1-0.5-0.2-1,0.2-1.4c0,1.6,0,3.2,0,4.8c0,0.3,0.1,0.5-0.2,0.7c0-0.3,0-0.7,0-1
		C21.9,23.5,21.9,22.5,22.3,21.4z"/>
	<path class="st100" d="M167.8,37.9c0.4,0.4,0.8,0.3,1.3,0c0.7-0.5,1.5-0.8,2.2-1.3c0.5,1.7,1.5,3.2,2.8,4.4
		c0.5,0.5,1.1,0.8,1.7,1.2c-0.5,0.7-1.3,1-2.1,1.3c-0.3,0.1-0.7,0-1-0.2c-1.3-0.5-2.2-1.5-3.2-2.4C168.9,40,168,39.1,167.8,37.9z"/>
	<path class="st101" d="M136.6,4.4c1.3,1.1,1.3,1.2,0.2,2.5c-0.2,0.3-0.5,0.5-0.7,0.8c-0.2-0.5,0.2-0.8,0.5-1
		c0.6-0.7,0.6-1.3-0.1-1.9C136.3,4.6,136.3,4.5,136.6,4.4z"/>
	<path class="st102" d="M136.6,4.4c-0.1,0.1-0.1,0.2-0.1,0.3c-0.4-0.7-1.2-1.2-1.2-2.1C135.6,3.3,136.3,3.7,136.6,4.4z"/>
	<path class="st103" d="M92.9,24.9c0,2,0,4,0,6c-0.9,0-1.7,0-2.6,0c-0.4,0-1,0.1-1-0.7c0-1.8,0-3.6,0-5.4
		C90.5,24.4,91.7,24.4,92.9,24.9z"/>
	<path class="st104" d="M92.9,24.9c-1.2,0-2.4,0-3.6,0c0-1.5,0-3,0-4.5c0-0.7,0.1-0.9,0.9-0.9c0.9,0.1,1.8,0,2.8,0
		C92.9,21.3,92.9,23.1,92.9,24.9z"/>
	<path class="st21" d="M22.3,21.4c0,1,0,2.1,0,3.1c-1.1,0-2.3,0-3.4,0c0-1.1,0-2.2,0-3.3C20,21.3,21.2,21.1,22.3,21.4z"/>
	<path class="st2" d="M97.1,23.2c0,2.5,0,5,0,7.5c-0.1,0-0.2,0-0.3,0c-0.4-0.4-0.2-0.8-0.3-1.3c0-0.6,0.1-1.3-0.6-1.7
		c0-0.5,0-1,0-1.5c0-0.2-0.1-0.5,0.1-0.6c0.9-0.4,0.7-1.1,0.7-1.8c0.1-1.8-0.2-3.6-0.2-5.4c0-0.1,0-0.3,0-0.3
		c-1.2-0.7-0.4-1.9-0.6-2.9c0.3,0,0.5-0.1,0.7-0.3c0.5-0.4,1.1-0.3,1.6,0.3c-0.6,0.3-0.8,0.9-0.8,1.6c0,1.7,0,3.3,0,5
		C97.3,22.2,97.3,22.7,97.1,23.2z"/>
	<path class="st105" d="M96.7,29.2c0,0.5,0,0.9,0,1.4c0,0.4-0.1,0.8,0,1.3c0.1,0.7-0.2,0.9-0.9,0.8c0-1.2,0-2.3,0-3.5
		C96.1,29,96.4,29,96.7,29.2z"/>
	<path class="st51" d="M96.9,37.9c-0.2-0.2-0.1-0.5-0.2-0.7c0-0.2,0-0.4-0.1-0.5c-1.3-0.5-0.5-1.6-0.7-2.5c0.8-0.1,1.1,0.2,1,1
		C96.8,36.1,96.9,37,96.9,37.9z"/>
	<path class="st26" d="M96.7,29.2c-0.3,0-0.6,0-0.9,0c0-0.5,0-1,0-1.6C97.2,27.6,96.6,28.6,96.7,29.2z"/>
	<path class="st67" d="M97.1,23.2c0-2.3,0-4.7,0-7c0-0.8,0.3-1.1,1.1-1c1.6-0.1,3.2,0.3,4.8-0.2c2.8-0.7,5.5-0.6,8,1
		c1,0.6,1.6,1.5,2.2,2.4c1,2.2,1.1,4.4,0.5,6.8c-0.5,0.7-0.8,1.6-1.6,2.1c-0.3-0.4,0-0.7,0.2-1c0.5-0.6,0.7-1.4,1-2.1
		c0.3-1.2-0.4-2.2-1.7-2.2c-0.7,0-1.5-0.2-1.8,0.7c-0.3-0.2-0.3-0.6-0.3-0.9c-0.1-1.4-0.9-2.3-2.3-2.5c-1.7-0.2-3.5-0.1-5.2,0
		c-0.5,0-0.6,0.3-0.6,0.8c-0.1,0.6,0.2,1.3-0.3,1.9c-0.7,0-1.3,0-2,0c-0.8-0.1-1.4,0.1-1.7,0.9C97.3,23,97.2,23.1,97.1,23.2z"/>
	<path class="st12" d="M112.3,26.3c-0.1,0.3-0.2,0.7-0.2,1c-0.3,0.1-0.5,0.5-0.9,0.5C111.3,27.1,112,26.8,112.3,26.3z"/>
	<path class="st106" d="M188.5,18.6c1.3-1.5,2-3.2,2.1-5.2c1-0.1,1.7-0.8,2.5-1.2c0.3-0.1,0.3-0.4,0.3-0.7c0.6,1.6,0.4,3.3-0.2,4.9
		c-1.3,0.7-2.5,1.5-3.8,2.2C189.1,18.7,188.8,19,188.5,18.6z"/>
</g>
</svg>
