<svg width="250" height="83" viewBox="0 0 250 83" fill="none" xmlns="http://www.w3.org/2000/svg">
<path d="M85.1863 18.9522H71.9675L67.73 34.7573H66.6937V0.0043335H41.6605V62.0637H25.0332V38.7053H35.4524V18.9522H25.0332V0.0043335H0V67.2047C0 75.9122 7.20826 83 16.0714 83H35.5445L40.6275 64.0391H41.6638V83H66.697V43.4584C66.697 40.8911 68.8256 38.7603 71.4379 38.7085C73.918 38.7085 76.2246 40.2861 76.2246 43.4551V83H101.258V34.7476C101.258 26.0367 94.0462 18.9522 85.1863 18.9522Z" fill="white"/>
<path d="M179.857 18.9498H154.823V82.9975H179.857V18.9498Z" fill="white"/>
<path d="M179.857 0.0043335H154.824V13.5233H179.857V0.0043335Z" fill="white"/>
<path d="M244.322 82.9959H233.406C226.365 82.9959 220.213 78.5629 218.091 71.9665L216.972 68.4875L213.083 82.9959H202.145C193.285 82.9959 186.073 75.9114 186.073 67.2006V0H211.106V62.0592H217.311V0H242.344V62.0592H250L244.322 82.9959Z" fill="white"/>
<path d="M133.53 34.7551H132.494V18.9501H107.461V82.9981H132.494V43.3365C132.494 40.7822 134.609 38.7064 137.205 38.7064H148.621V18.9533H137.765L133.527 34.7583L133.53 34.7551Z" fill="white"/>
</svg>
